<svg width="16" height="16" viewBox="0 0 16 16" fill="none" xmlns="http://www.w3.org/2000/svg">
<path d="M8.00016 1.33398C4.32426 1.33398 1.3335 4.32475 1.3335 8.00065C1.3335 9.09242 1.62107 10.1123 2.0874 11.0221L1.36475 13.61C1.19643 14.2112 1.7908 14.8049 2.39209 14.6367L4.98128 13.9141C5.89051 14.3798 6.90915 14.6673 8.00016 14.6673C11.6761 14.6673 14.6668 11.6766 14.6668 8.00065C14.6668 4.32475 11.6761 1.33398 8.00016 1.33398ZM8.00016 2.33398C11.1356 2.33398 13.6668 4.86522 13.6668 8.00065C13.6668 11.1361 11.1356 13.6673 8.00016 13.6673C6.99917 13.6673 6.06425 13.4067 5.24821 12.9518C5.13299 12.8875 4.99703 12.8714 4.86995 12.9069L2.40771 13.5944L3.09521 11.1335C3.13073 11.0064 3.11458 10.8704 3.05029 10.7552C2.59471 9.93848 2.3335 9.00216 2.3335 8.00065C2.3335 4.86522 4.86473 2.33398 8.00016 2.33398ZM7.99235 4.32682C7.85986 4.32889 7.7336 4.38347 7.64131 4.47856C7.54903 4.57365 7.49826 4.70149 7.50016 4.83398V8.83398C7.49923 8.90024 7.51147 8.96602 7.53617 9.02751C7.56088 9.08899 7.59756 9.14495 7.64408 9.19213C7.6906 9.23932 7.74604 9.27679 7.80717 9.30236C7.8683 9.32794 7.9339 9.34111 8.00016 9.34111C8.06642 9.34111 8.13203 9.32794 8.19316 9.30236C8.25428 9.27679 8.30972 9.23932 8.35624 9.19213C8.40276 9.14495 8.43944 9.08899 8.46415 9.02751C8.48886 8.96602 8.5011 8.90024 8.50016 8.83398V4.83398C8.50112 4.76706 8.48864 4.70063 8.46345 4.63862C8.43826 4.57661 8.40088 4.52029 8.35353 4.473C8.30617 4.4257 8.2498 4.38839 8.18776 4.36328C8.12572 4.33818 8.05927 4.32578 7.99235 4.32682ZM8.00016 10.334C7.82335 10.334 7.65378 10.4042 7.52876 10.5292C7.40373 10.6543 7.3335 10.8238 7.3335 11.0007C7.3335 11.1775 7.40373 11.347 7.52876 11.4721C7.65378 11.5971 7.82335 11.6673 8.00016 11.6673C8.17697 11.6673 8.34654 11.5971 8.47157 11.4721C8.59659 11.347 8.66683 11.1775 8.66683 11.0007C8.66683 10.8238 8.59659 10.6543 8.47157 10.5292C8.34654 10.4042 8.17697 10.334 8.00016 10.334Z" fill="#0056D2"/>
</svg>
