<svg width="59" height="59" viewBox="0 0 59 59" fill="none" xmlns="http://www.w3.org/2000/svg">
<path fill-rule="evenodd" clip-rule="evenodd" d="M24.9804 24.9805C26.179 23.7818 27.8048 23.1084 29.5 23.1084C30.3146 23.1084 30.975 23.7688 30.975 24.5834C30.975 25.398 30.3146 26.0584 29.5 26.0584C28.5872 26.0584 27.7118 26.421 27.0663 27.0664C26.4209 27.7119 26.0583 28.5873 26.0583 29.5001C26.0583 32.0811 25.8068 35.8018 25.4107 39.4909C25.3237 40.3008 24.5966 40.8869 23.7866 40.8C22.9767 40.713 22.3906 39.9859 22.4775 39.1759C22.8681 35.5392 23.1083 31.934 23.1083 29.5001C23.1083 27.8049 23.7817 26.1791 24.9804 24.9805Z" fill="#0056D2"/>
<path fill-rule="evenodd" clip-rule="evenodd" d="M34.4166 30.7783C35.2313 30.7783 35.8916 31.4387 35.8916 32.2533V32.2706C35.8916 35.1892 35.8916 39.1569 35.5799 43.1719C35.2694 47.1713 34.6417 51.3463 33.3278 54.6311C33.0253 55.3875 32.1669 55.7554 31.4105 55.4528C30.6541 55.1503 30.2863 54.2919 30.5888 53.5355C31.7332 50.6745 32.3347 46.8599 32.6388 42.9435C32.941 39.0506 32.9416 35.1839 32.9416 32.2533C32.9416 31.4387 33.602 30.7783 34.4166 30.7783Z" fill="#0056D2"/>
<path fill-rule="evenodd" clip-rule="evenodd" d="M43.8765 42.7819C44.6873 42.8608 45.2807 43.5819 45.2018 44.3927C45.0216 46.2465 44.2448 50.494 43.9509 51.9634C43.7912 52.7622 43.0141 53.2803 42.2153 53.1205C41.4165 52.9608 40.8985 52.1837 41.0582 51.3849C41.3543 49.9044 42.1017 45.7935 42.2657 44.1073C42.3445 43.2965 43.0657 42.7031 43.8765 42.7819Z" fill="#0056D2"/>
<path fill-rule="evenodd" clip-rule="evenodd" d="M36.3901 7.44277C31.7607 5.99664 26.7936 6.04378 22.1925 7.57749C17.5913 9.11121 13.5894 12.0538 10.7535 15.9883C7.91766 19.9229 6.39165 24.65 6.39165 29.5C6.39165 30.3146 5.73127 30.975 4.91665 30.975C4.10203 30.975 3.44165 30.3146 3.44165 29.5C3.44165 24.0308 5.16247 18.7002 8.36036 14.2634C11.5583 9.82657 16.0711 6.50839 21.2596 4.77888C26.4481 3.04937 32.0493 2.99622 37.2697 4.62695C42.4902 6.25769 47.0651 9.48963 50.3466 13.865C50.8354 14.5167 50.7033 15.4412 50.0516 15.93C49.4 16.4188 48.4754 16.2867 47.9866 15.635C45.0766 11.755 41.0196 8.88889 36.3901 7.44277Z" fill="#0056D2"/>
<path fill-rule="evenodd" clip-rule="evenodd" d="M3.44165 39.3334C3.44165 38.5188 4.10203 37.8584 4.91665 37.8584H4.94123C5.75585 37.8584 6.41623 38.5188 6.41623 39.3334C6.41623 40.148 5.75585 40.8084 4.94123 40.8084H4.91665C4.10203 40.8084 3.44165 40.148 3.44165 39.3334Z" fill="#0056D2"/>
<path fill-rule="evenodd" clip-rule="evenodd" d="M53.2985 23.1379C54.0968 22.976 54.8753 23.4919 55.0372 24.2903C55.1431 24.8127 55.217 25.7343 55.2698 26.7932C55.3246 27.8915 55.361 29.246 55.3717 30.6993C55.3931 33.5957 55.3127 36.946 55.0593 39.4802C54.9782 40.2908 54.2554 40.8822 53.4449 40.8011C52.6343 40.7201 52.0429 39.9972 52.1239 39.1867C52.3622 36.8043 52.4428 33.5735 52.4218 30.7211C52.4113 29.3 52.3757 27.9882 52.3235 26.9401C52.2692 25.8528 52.2011 25.1482 52.146 24.8766C51.9841 24.0782 52.5001 23.2998 53.2985 23.1379Z" fill="#0056D2"/>
<path fill-rule="evenodd" clip-rule="evenodd" d="M16.0753 23.1919C16.8438 23.4622 17.2476 24.3043 16.9773 25.0728C16.4772 26.4944 16.2228 27.9908 16.225 29.4978L16.225 29.5C16.225 36.9935 14.9815 44.5322 13.691 48.4039C13.4334 49.1767 12.5981 49.5944 11.8252 49.3368C11.0524 49.0792 10.6348 48.2439 10.8924 47.471C12.0601 43.9679 13.2749 36.7572 13.275 29.5011" fill="#0056D2"/>
<path fill-rule="evenodd" clip-rule="evenodd" d="M22.9222 47.7141C23.7244 47.8557 24.26 48.6208 24.1184 49.423C23.8599 50.8878 23.3873 52.3316 22.9558 53.6498C22.8574 53.9503 22.7612 54.2443 22.6701 54.5305C22.4232 55.3068 21.5936 55.7359 20.8174 55.4889C20.0411 55.2419 19.612 54.4124 19.859 53.6361C19.9663 53.2988 20.0736 52.9703 20.1787 52.6484C20.6043 51.3449 20.9947 50.149 21.2133 48.9103C21.3548 48.1081 22.1199 47.5725 22.9222 47.7141Z" fill="#0056D2"/>
<path fill-rule="evenodd" clip-rule="evenodd" d="M29.5022 16.2156C27.1712 16.2153 24.8812 16.8287 22.8625 17.9941C22.157 18.4014 21.2549 18.1597 20.8476 17.4543C20.4403 16.7488 20.682 15.8467 21.3875 15.4394C23.8548 14.0149 26.6537 13.2652 29.5026 13.2656C32.3516 13.2661 35.1502 14.0167 37.617 15.442C40.0839 16.8672 42.1319 18.9169 43.5552 21.3849C44.9785 23.8528 45.7269 26.6521 45.725 29.501V34.4167C45.725 35.2314 45.0646 35.8918 44.25 35.8918C43.4354 35.8918 42.775 35.2314 42.775 34.4167V29.5001C42.7765 27.1691 42.1642 24.8779 40.9997 22.8587C39.8352 20.8394 38.1595 19.1624 36.1412 17.9963C34.1229 16.8301 31.8331 16.216 29.5022 16.2156Z" fill="#0056D2"/>
</svg>
