<svg width="18" height="18" viewBox="0 0 18 18" fill="none" xmlns="http://www.w3.org/2000/svg">
<path d="M13.5 1.5H4.5C3.67157 1.5 3 2.17157 3 3V15C3 15.8284 3.67157 16.5 4.5 16.5H13.5C14.3284 16.5 15 15.8284 15 15V3C15 2.17157 14.3284 1.5 13.5 1.5Z" stroke="#0056D2" stroke-linecap="round" stroke-linejoin="round"/>
<path d="M6.75 16.5V13.5H11.25V16.5" stroke="#0056D2" stroke-linecap="round" stroke-linejoin="round"/>
<path d="M6 4.5H6.00833" stroke="#0056D2" stroke-linecap="round" stroke-linejoin="round"/>
<path d="M12 4.5H12.0083" stroke="#0056D2" stroke-linecap="round" stroke-linejoin="round"/>
<path d="M9 4.5H9.00833" stroke="#0056D2" stroke-linecap="round" stroke-linejoin="round"/>
<path d="M9 7.5H9.00833" stroke="#0056D2" stroke-linecap="round" stroke-linejoin="round"/>
<path d="M9 10.5H9.00833" stroke="#0056D2" stroke-linecap="round" stroke-linejoin="round"/>
<path d="M12 7.5H12.0083" stroke="#0056D2" stroke-linecap="round" stroke-linejoin="round"/>
<path d="M12 10.5H12.0083" stroke="#0056D2" stroke-linecap="round" stroke-linejoin="round"/>
<path d="M6 7.5H6.00833" stroke="#0056D2" stroke-linecap="round" stroke-linejoin="round"/>
<path d="M6 10.5H6.00833" stroke="#0056D2" stroke-linecap="round" stroke-linejoin="round"/>
</svg>
