<svg width="23" height="22" viewBox="0 0 23 22" fill="none" xmlns="http://www.w3.org/2000/svg">
<path d="M20.3016 10.0109C20.4657 9.93847 20.6049 9.81952 20.7021 9.66876C20.7992 9.518 20.85 9.34205 20.8482 9.1627C20.8463 8.98335 20.7919 8.80849 20.6917 8.65977C20.5914 8.51105 20.4497 8.39501 20.2841 8.32602L12.4274 4.74736C12.1885 4.63841 11.9291 4.58203 11.6666 4.58203C11.404 4.58203 11.1446 4.63841 10.9057 4.74736L3.0499 8.32236C2.8867 8.39383 2.74787 8.51132 2.65038 8.66044C2.55289 8.80956 2.50098 8.98386 2.50098 9.16203C2.50098 9.34019 2.55289 9.51449 2.65038 9.66361C2.74787 9.81273 2.8867 9.93022 3.0499 10.0017L10.9057 13.584C11.1446 13.693 11.404 13.7494 11.6666 13.7494C11.9291 13.7494 12.1885 13.693 12.4274 13.584L20.3016 10.0109Z" stroke="#888888" stroke-linecap="round" stroke-linejoin="round"/>
<path d="M20.834 9.16602V14.666" stroke="#888888" stroke-linecap="round" stroke-linejoin="round"/>
<path d="M6.16699 11.459V14.6673C6.16699 15.3967 6.74645 16.0961 7.77791 16.6119C8.80936 17.1276 10.2083 17.4173 11.667 17.4173C13.1257 17.4173 14.5246 17.1276 15.5561 16.6119C16.5875 16.0961 17.167 15.3967 17.167 14.6673V11.459" stroke="#888888" stroke-linecap="round" stroke-linejoin="round"/>
</svg>
