<svg width="54" height="18" viewBox="0 0 54 18" fill="none" xmlns="http://www.w3.org/2000/svg">
<rect width="54" height="18" rx="9" fill="white"/>
<circle cx="9" cy="9" r="4" fill="#FF2626"/>
<path d="M20.465 5.592C21.239 5.592 21.878 5.784 22.382 6.168C22.886 6.546 23.234 7.065 23.426 7.725H22.562C22.4 7.305 22.139 6.972 21.779 6.726C21.419 6.474 20.978 6.348 20.456 6.348C20.042 6.348 19.67 6.45 19.34 6.654C19.016 6.852 18.758 7.14 18.566 7.518C18.38 7.89 18.287 8.328 18.287 8.832C18.287 9.33 18.38 9.765 18.566 10.137C18.758 10.509 19.016 10.797 19.34 11.001C19.67 11.199 20.042 11.298 20.456 11.298C20.978 11.298 21.419 11.175 21.779 10.929C22.139 10.677 22.4 10.341 22.562 9.921H23.426C23.234 10.581 22.886 11.103 22.382 11.487C21.878 11.865 21.239 12.054 20.465 12.054C19.871 12.054 19.346 11.919 18.89 11.649C18.434 11.373 18.077 10.992 17.819 10.506C17.567 10.014 17.441 9.456 17.441 8.832C17.441 8.202 17.567 7.641 17.819 7.149C18.077 6.657 18.434 6.276 18.89 6.006C19.346 5.73 19.871 5.592 20.465 5.592ZM25.3403 5.34V12H24.5213V5.34H25.3403ZM28.898 6.996C29.372 6.996 29.795 7.098 30.167 7.302C30.545 7.506 30.839 7.8 31.049 8.184C31.265 8.568 31.373 9.018 31.373 9.534C31.373 10.05 31.265 10.5 31.049 10.884C30.839 11.262 30.545 11.553 30.167 11.757C29.795 11.961 29.372 12.063 28.898 12.063C28.424 12.063 27.998 11.961 27.62 11.757C27.248 11.553 26.954 11.262 26.738 10.884C26.522 10.5 26.414 10.05 26.414 9.534C26.414 9.018 26.522 8.568 26.738 8.184C26.954 7.8 27.248 7.506 27.62 7.302C27.998 7.098 28.424 6.996 28.898 6.996ZM28.898 7.716C28.604 7.716 28.331 7.782 28.079 7.914C27.833 8.046 27.632 8.25 27.476 8.526C27.326 8.796 27.251 9.132 27.251 9.534C27.251 9.93 27.326 10.266 27.476 10.542C27.632 10.812 27.833 11.013 28.079 11.145C28.331 11.277 28.604 11.343 28.898 11.343C29.192 11.343 29.462 11.277 29.708 11.145C29.96 11.013 30.161 10.812 30.311 10.542C30.467 10.266 30.545 9.93 30.545 9.534C30.545 9.132 30.467 8.796 30.311 8.526C30.161 8.25 29.96 8.046 29.708 7.914C29.462 7.782 29.192 7.716 28.898 7.716ZM33.9882 6.996C34.5462 6.996 34.9932 7.143 35.3292 7.437C35.6712 7.725 35.8782 8.115 35.9502 8.607H35.1672C35.1312 8.313 35.0082 8.073 34.7982 7.887C34.5942 7.695 34.3182 7.599 33.9702 7.599C33.6762 7.599 33.4452 7.671 33.2772 7.815C33.1152 7.953 33.0342 8.142 33.0342 8.382C33.0342 8.562 33.0882 8.709 33.1962 8.823C33.3102 8.931 33.4482 9.015 33.6102 9.075C33.7782 9.129 34.0062 9.189 34.2942 9.255C34.6602 9.339 34.9542 9.426 35.1762 9.516C35.4042 9.6 35.5962 9.738 35.7522 9.93C35.9142 10.122 35.9952 10.38 35.9952 10.704C35.9952 11.106 35.8422 11.433 35.5362 11.685C35.2362 11.937 34.8342 12.063 34.3302 12.063C33.7422 12.063 33.2622 11.922 32.8902 11.64C32.5182 11.358 32.2992 10.965 32.2332 10.461H33.0252C33.0552 10.761 33.1842 11.004 33.4122 11.19C33.6462 11.376 33.9522 11.469 34.3302 11.469C34.6122 11.469 34.8312 11.397 34.9872 11.253C35.1492 11.109 35.2302 10.92 35.2302 10.686C35.2302 10.494 35.1732 10.341 35.0592 10.227C34.9452 10.113 34.8042 10.026 34.6362 9.966C34.4682 9.906 34.2372 9.843 33.9432 9.777C33.5772 9.693 33.2832 9.609 33.0612 9.525C32.8452 9.441 32.6592 9.309 32.5032 9.129C32.3532 8.943 32.2782 8.694 32.2782 8.382C32.2782 7.968 32.4312 7.635 32.7372 7.383C33.0432 7.125 33.4602 6.996 33.9882 6.996ZM41.6346 9.255C41.6346 9.429 41.6226 9.579 41.5986 9.705H37.6476C37.6656 10.269 37.8246 10.692 38.1246 10.974C38.4306 11.256 38.8026 11.397 39.2406 11.397C39.6366 11.397 39.9666 11.298 40.2306 11.1C40.5006 10.896 40.6656 10.626 40.7256 10.29H41.5986C41.5386 10.632 41.4036 10.938 41.1936 11.208C40.9896 11.478 40.7226 11.688 40.3926 11.838C40.0626 11.988 39.6906 12.063 39.2766 12.063C38.8026 12.063 38.3826 11.961 38.0166 11.757C37.6506 11.553 37.3626 11.262 37.1526 10.884C36.9486 10.5 36.8466 10.05 36.8466 9.534C36.8466 9.018 36.9486 8.568 37.1526 8.184C37.3626 7.8 37.6506 7.506 38.0166 7.302C38.3826 7.098 38.8026 6.996 39.2766 6.996C39.7566 6.996 40.1736 7.098 40.5276 7.302C40.8876 7.506 41.1606 7.779 41.3466 8.121C41.5386 8.463 41.6346 8.841 41.6346 9.255ZM40.8066 9.309C40.8246 8.943 40.7646 8.637 40.6266 8.391C40.4886 8.145 40.2996 7.962 40.0596 7.842C39.8196 7.722 39.5586 7.662 39.2766 7.662C38.8266 7.662 38.4486 7.803 38.1426 8.085C37.8366 8.361 37.6716 8.769 37.6476 9.309H40.8066ZM44.7308 6.996C45.2108 6.996 45.6158 7.116 45.9458 7.356C46.2818 7.596 46.5158 7.917 46.6478 8.319V5.34H47.4668V12H46.6478V10.74C46.5158 11.142 46.2818 11.463 45.9458 11.703C45.6158 11.943 45.2108 12.063 44.7308 12.063C44.2928 12.063 43.9028 11.961 43.5608 11.757C43.2188 11.553 42.9488 11.262 42.7508 10.884C42.5588 10.5 42.4628 10.05 42.4628 9.534C42.4628 9.018 42.5588 8.568 42.7508 8.184C42.9488 7.8 43.2188 7.506 43.5608 7.302C43.9028 7.098 44.2928 6.996 44.7308 6.996ZM44.9648 7.725C44.4608 7.725 44.0558 7.887 43.7498 8.211C43.4498 8.529 43.2998 8.97 43.2998 9.534C43.2998 10.098 43.4498 10.542 43.7498 10.866C44.0558 11.184 44.4608 11.343 44.9648 11.343C45.2888 11.343 45.5768 11.268 45.8288 11.118C46.0868 10.968 46.2878 10.758 46.4318 10.488C46.5758 10.212 46.6478 9.894 46.6478 9.534C46.6478 9.174 46.5758 8.856 46.4318 8.58C46.2878 8.304 46.0868 8.094 45.8288 7.95C45.5768 7.8 45.2888 7.725 44.9648 7.725Z" fill="#1F1F1F"/>
</svg>
