<svg width="159" height="111" viewBox="0 0 159 111" fill="none" xmlns="http://www.w3.org/2000/svg">
<path d="M143.625 108.703C160.761 95.6149 168.393 59.3237 140.568 41.5278C122.147 29.7484 110.69 36.4536 89.9672 28.6756C64.6685 19.1651 60.8977 -9.56922 30.1286 4.56963C13.8257 12.0577 2.52413 33.1626 0.539495 57.149C-1.41627 80.6388 6.87229 96.7566 23.8103 107.771C63.586 109.486 103.441 109.177 143.625 108.703Z" fill="white"/>
<path d="M74.5053 22.6872C72.3427 31.3738 80.3778 39.973 88.8412 43.5381C97.3046 47.1032 107.011 46.681 116.077 44.9798C119.998 44.2469 124.013 43.2154 127.053 40.721C130.094 38.2266 131.855 33.8953 130.19 30.3966C128.718 27.311 125.141 25.7305 121.727 24.9192C118.312 24.1078 114.693 23.776 111.653 22.0689C108.769 20.4492 106.724 17.7678 104.218 15.6444C99.5879 11.7264 93.0759 9.79 87.0586 11.0236C81.0414 12.2572 76.3452 15.3036 74.5053 22.6872Z" fill="white"/>
<path d="M108.009 29.122C108.009 31.1761 107.4 33.184 106.259 34.8918C105.118 36.5996 103.496 37.9307 101.598 38.7166C99.7004 39.5025 97.6122 39.7079 95.5977 39.307C93.5831 38.9061 91.7328 37.9167 90.2805 36.4641C88.8283 35.0114 87.8395 33.1608 87.4392 31.1461C87.0388 29.1315 87.2449 27.0434 88.0314 25.1459C88.8178 23.2484 90.1493 21.6267 91.8575 20.486C93.5656 19.3453 95.5737 18.7367 97.6277 18.7373C98.9917 18.7361 100.342 19.0039 101.603 19.5254C102.863 20.0469 104.008 20.8119 104.972 21.7764C105.937 22.741 106.701 23.8863 107.222 25.1468C107.744 26.4072 108.011 27.7581 108.009 29.122Z" fill="#0056D2" stroke="#0056D2" stroke-width="0.256065" stroke-miterlimit="10"/>
<path d="M98.0452 29.0738C99.9084 28.8437 101.232 27.1467 101.002 25.2835C100.772 23.4203 99.0752 22.0965 97.212 22.3265C95.3488 22.5566 94.0249 24.2536 94.255 26.1168C94.4851 27.98 96.182 29.3039 98.0452 29.0738Z" fill="white"/>
<path d="M104.064 35.9593C102.23 37.4069 99.962 38.1942 97.6258 38.1942C95.2896 38.1942 93.0215 37.4069 91.1877 35.9593C91.8513 33.0367 92.4636 30.5302 93.097 29.8757C94.0018 28.9708 96.3816 28.4551 97.6213 28.4551C98.8609 28.4551 101.361 29.0885 101.823 29.5499C102.764 30.491 103.575 33.0819 104.064 35.9593Z" fill="white"/>
<path d="M101.392 47.1993L101.392 47.1993C101.709 47.1982 102.022 47.2596 102.315 47.38C102.608 47.5004 102.874 47.6774 103.099 47.9009C103.323 48.1244 103.501 48.3899 103.622 48.6823C103.744 48.9748 103.806 49.2883 103.806 49.6049V54.7324C103.806 55.3704 103.553 55.9823 103.102 56.4334C102.651 56.8845 102.039 57.138 101.401 57.138H85.2341C84.5966 57.1372 83.9855 56.8834 83.535 56.4324C83.0845 55.9813 82.8314 55.3699 82.8314 54.7324V49.6049C82.8314 48.9669 83.0849 48.355 83.536 47.9039C83.9871 47.4528 84.599 47.1993 85.237 47.1993L101.392 47.1993Z" fill="#0056D2" stroke="#0056D2" stroke-width="0.256065"/>
<path d="M89.5257 54.4492L81.7078 62.0651L94.3788 55.6617" fill="#0056D2"/>
<path d="M84.6636 49.4628V49.4356C84.6636 49.3356 84.7033 49.2397 84.774 49.169C84.8447 49.0983 84.9406 49.0586 85.0406 49.0586H93.0275C93.1275 49.0586 93.2233 49.0983 93.2941 49.169C93.3648 49.2397 93.4045 49.3356 93.4045 49.4356V49.4628C93.4045 49.5628 93.3648 49.6587 93.2941 49.7294C93.2233 49.8001 93.1275 49.8398 93.0275 49.8398H85.0406C84.9406 49.8398 84.8447 49.8001 84.774 49.7294C84.7033 49.6587 84.6636 49.5628 84.6636 49.4628Z" fill="white"/>
<path d="M93.7639 49.4628V49.4356C93.7639 49.3356 93.8036 49.2397 93.8743 49.169C93.945 49.0983 94.0409 49.0586 94.1409 49.0586H101.111C101.211 49.0586 101.307 49.0983 101.378 49.169C101.449 49.2397 101.488 49.3356 101.488 49.4356V49.4628C101.488 49.5628 101.449 49.6587 101.378 49.7294C101.307 49.8001 101.211 49.8398 101.111 49.8398H94.1409C94.0409 49.8398 93.945 49.8001 93.8743 49.7294C93.8036 49.6587 93.7639 49.5628 93.7639 49.4628Z" fill="white"/>
<path d="M90.7209 51.1786V51.1514C90.7209 51.0514 90.7607 50.9555 90.8314 50.8848C90.9021 50.8141 90.998 50.7744 91.098 50.7744H101.112C101.212 50.7744 101.308 50.8141 101.378 50.8848C101.449 50.9555 101.489 51.0514 101.489 51.1514V51.1786C101.489 51.2786 101.449 51.3745 101.378 51.4452C101.308 51.5159 101.212 51.5556 101.112 51.5556H91.098C90.998 51.5556 90.9021 51.5159 90.8314 51.4452C90.7607 51.3745 90.7209 51.2786 90.7209 51.1786Z" fill="white"/>
<path d="M84.6636 51.1786V51.1514C84.6636 51.0514 84.7033 50.9555 84.774 50.8848C84.8447 50.8141 84.9406 50.7744 85.0406 50.7744H89.5136C89.6136 50.7744 89.7095 50.8141 89.7802 50.8848C89.8509 50.9555 89.8906 51.0514 89.8906 51.1514V51.1786C89.8906 51.2786 89.8509 51.3745 89.7802 51.4452C89.7095 51.5159 89.6136 51.5556 89.5136 51.5556H85.0406C84.9406 51.5556 84.8447 51.5159 84.774 51.4452C84.7033 51.3745 84.6636 51.2786 84.6636 51.1786Z" fill="white"/>
<path d="M92.1111 52.8954V52.8682C92.1111 52.7682 92.1508 52.6723 92.2215 52.6016C92.2922 52.5309 92.3881 52.4912 92.4881 52.4912H101.111C101.211 52.4912 101.307 52.5309 101.378 52.6016C101.449 52.6723 101.488 52.7682 101.488 52.8682V52.8954C101.488 52.9954 101.449 53.0913 101.378 53.162C101.307 53.2327 101.211 53.2724 101.111 53.2724H92.4881C92.3881 53.2724 92.2922 53.2327 92.2215 53.162C92.1508 53.0913 92.1111 52.9954 92.1111 52.8954Z" fill="white"/>
<path d="M84.6636 52.8954V52.8682C84.6636 52.7682 84.7033 52.6723 84.774 52.6016C84.8447 52.5309 84.9406 52.4912 85.0406 52.4912H90.9976C91.0976 52.4912 91.1935 52.5309 91.2642 52.6016C91.3349 52.6723 91.3746 52.7682 91.3746 52.8682V52.8954C91.3746 52.9954 91.3349 53.0913 91.2642 53.162C91.1935 53.2327 91.0976 53.2724 90.9976 53.2724H85.0406C84.9406 53.2724 84.8447 53.2327 84.774 53.162C84.7033 53.0913 84.6636 52.9954 84.6636 52.8954Z" fill="white"/>
<path d="M84.6636 54.6122V54.585C84.6636 54.485 84.7033 54.3891 84.774 54.3184C84.8447 54.2477 84.9406 54.208 85.0406 54.208H87.2515C87.3515 54.208 87.4474 54.2477 87.5181 54.3184C87.5888 54.3891 87.6285 54.485 87.6285 54.585V54.6122C87.6285 54.7122 87.5888 54.8081 87.5181 54.8788C87.4474 54.9495 87.3515 54.9892 87.2515 54.9892H85.0406C84.9406 54.9892 84.8447 54.9495 84.774 54.8788C84.7033 54.8081 84.6636 54.7122 84.6636 54.6122Z" fill="white"/>
<path d="M88.4099 54.6122V54.585C88.4099 54.485 88.4496 54.3891 88.5203 54.3184C88.591 54.2477 88.6869 54.208 88.7869 54.208H101.111C101.211 54.208 101.307 54.2477 101.378 54.3184C101.448 54.3891 101.488 54.485 101.488 54.585V54.6122C101.488 54.7122 101.448 54.8081 101.378 54.8788C101.307 54.9495 101.211 54.9892 101.111 54.9892H88.7869C88.6869 54.9892 88.591 54.9495 88.5203 54.8788C88.4496 54.8081 88.4099 54.7122 88.4099 54.6122Z" fill="white"/>
<path d="M51.6318 33.2763C54.6712 26.2493 51.4386 18.089 44.4117 15.0496C37.3847 12.0102 29.2243 15.2428 26.1849 22.2697C23.1455 29.2967 26.3781 37.4571 33.4051 40.4965C40.432 43.5358 48.5924 40.3033 51.6318 33.2763Z" fill="#0056D2"/>
<path d="M39 16H38V28H39V16Z" fill="white"/>
<path d="M28.6798 34.3231L29.2058 35.083L38.9094 28.3665L38.3834 27.6066L28.6798 34.3231Z" fill="white"/>
<path d="M40 28C40 28.1978 39.9414 28.3911 39.8315 28.5556C39.7216 28.72 39.5654 28.8482 39.3827 28.9239C39.2 28.9996 38.9989 29.0194 38.8049 28.9808C38.6109 28.9422 38.4327 28.847 38.2929 28.7071C38.153 28.5673 38.0578 28.3891 38.0192 28.1951C37.9806 28.0011 38.0004 27.8 38.0761 27.6173C38.1518 27.4346 38.28 27.2784 38.4444 27.1685C38.6089 27.0586 38.8022 27 39 27C39.2652 27 39.5196 27.1054 39.7071 27.2929C39.8946 27.4804 40 27.7348 40 28Z" fill="white"/>
<path d="M83.6477 88.938C83.0656 79.9618 86.9926 70.6719 93.6011 65.3574C93.8122 74.3788 89.9244 83.5088 83.6477 88.938Z" fill="#0056D2"/>
<path d="M92.5269 67.7744C89.7261 72.9997 87.3196 78.4268 85.3273 84.0105C82.8932 90.8181 80.9779 98.0509 76.8096 103.758" stroke="#14A2FF" stroke-width="0.256065" stroke-miterlimit="10" stroke-linecap="round"/>
<path d="M81.5598 94.5851C84.9078 87.0959 91.5524 81.4375 98.8787 79.8359C95.76 87.862 88.7444 93.9849 81.5598 94.5851Z" fill="#0056D2"/>
<path d="M97.0813 81.4854C92.0785 85.889 86.9902 90.1679 81.8164 94.3222" stroke="#14A2FF" stroke-width="0.256065" stroke-miterlimit="10" stroke-linecap="round"/>
<path d="M79.585 101.11C84.058 94.4288 92.3102 90.942 99.1389 92.8483C94.1169 99.4447 85.8375 102.94 79.585 101.11Z" fill="#0056D2"/>
<path d="M97.5011 93.3398C91.7256 96.9715 85.4151 99.6727 78.8008 101.345" stroke="#6F8BBF" stroke-width="0.256065" stroke-miterlimit="10" stroke-linecap="round"/>
<path d="M82.0008 92.3145C83.4305 84.7921 81.286 76.4071 76.5114 70.8604C74.5539 78.2591 76.4209 86.9155 82.0008 92.3145Z" fill="#0056D2"/>
<path d="M77.0034 72.7783C77.8887 79.6252 79.6411 86.3317 82.2184 92.7364" stroke="#14A2FF" stroke-width="0.256065" stroke-miterlimit="10" stroke-linecap="round"/>
<path d="M79.5454 98.7207C78.9422 90.9872 74.9729 83.7242 69.1758 79.7188C69.5044 83.757 70.5728 87.7004 72.3277 91.3522C74.3154 95.4723 77.235 98.0873 79.5454 98.7207Z" fill="#0056D2"/>
<path d="M70.0359 81.2744C72.2663 87.6314 75.5271 93.5783 79.6877 98.8769" stroke="#14A2FF" stroke-width="0.256065" stroke-miterlimit="10" stroke-linecap="round"/>
<path d="M124.314 96.8657C127.478 88.6346 134.756 81.9567 142.783 79.9238C139.266 88.0434 132.087 94.5885 124.314 96.8657Z" fill="#0056D2"/>
<path d="M140.838 81.6348C136.219 85.1481 131.867 89.0003 127.82 93.1596C122.88 98.2328 118.22 103.891 112.196 107.275" stroke="#14A2FF" stroke-width="0.256065" stroke-miterlimit="10" stroke-linecap="round"/>
<path d="M120.155 101.044C126.188 95.7385 134.377 93.41 141.507 94.9723C135.462 100.851 126.752 103.442 120.155 101.044Z" fill="#0056D2"/>
<path d="M139.242 95.7109C133.008 97.593 126.757 99.3284 120.487 100.917" stroke="#14A2FF" stroke-width="0.256065" stroke-miterlimit="10" stroke-linecap="round"/>
<path d="M115.734 106.048C122.427 101.922 131.15 102.184 136.404 106.669C129.271 110.494 120.524 110.229 115.734 106.048Z" fill="#0056D2"/>
<path d="M134.759 106.429C128.169 107.306 121.48 107.136 114.943 105.925" stroke="#14A2FF" stroke-width="0.256065" stroke-miterlimit="10" stroke-linecap="round"/>
<path d="M121.476 99.2002C125.823 93.0834 127.364 84.7376 125.418 77.8486C120.656 83.6337 118.756 92.1122 121.476 99.2002Z" fill="#0056D2"/>
<path d="M125.066 79.7666C123.039 86.2248 121.838 92.9136 121.492 99.6734" stroke="#14A2FF" stroke-width="0.256065" stroke-miterlimit="10" stroke-linecap="round"/>
<path d="M116.681 103.896C119.311 96.7596 118.792 88.6702 115.305 82.7344C113.941 86.4643 113.27 90.4118 113.324 94.3829C113.387 98.874 114.895 102.388 116.681 103.896Z" fill="#A2C7EB"/>
<path d="M115.42 84.4863C114.786 91.0545 115.231 97.6822 116.738 104.107" stroke="#14A2FF" stroke-width="0.256065" stroke-miterlimit="10" stroke-linecap="round"/>
<path d="M34.6437 82.4789C31.4164 72.607 22.4161 64.6352 11.9409 62.373C16.3476 70.9088 24.3314 77.7013 34.6437 82.4789Z" fill="#0056D2"/>
<path d="M35.1898 84.0038C31.6265 82.0208 27.6946 80.7893 23.6369 80.3852C19.5791 79.9811 15.4815 80.4129 11.5972 81.6542C18.9071 85.3043 27.3035 86.1405 35.1898 84.0038Z" fill="#0056D2"/>
<path d="M37.1442 86.1444C29.5072 85.0857 21.5113 86.9678 15.3101 91.2719C22.3408 93.8387 30.7771 92.1798 37.1442 86.1444Z" fill="#0056D2"/>
<path d="M39.5239 90.8176C31.9623 90.7874 24.5274 94.3797 20.0815 100.216C23.4606 100.888 26.9649 100.493 30.1104 99.0879C33.1959 97.6915 35.7838 95.3026 39.5239 90.8176Z" fill="#0056D2"/>
<path d="M44.8566 98.639C37.3976 97.3601 29.456 99.6705 24.0781 104.671C27.3029 105.891 30.8261 106.083 34.1642 105.22C37.4459 104.364 40.4047 102.439 44.8566 98.639Z" fill="#0056D2"/>
<path d="M36.8058 82.9414C31.8804 76.3058 30.5442 67.3597 33.3432 59.7529C35.4787 63.3724 37.3216 67.1939 38.1691 71.2597C39.0167 75.3255 38.8749 79.6598 36.8058 82.9414Z" fill="#0056D2"/>
<path d="M39.8131 89.3472C39.2574 85.8074 39.5412 82.1865 40.6413 78.7765C41.7415 75.3664 43.6274 72.2625 46.1471 69.7148C46.7352 77.011 44.5153 84.4429 39.8131 89.3472Z" fill="#A2C7EB"/>
<path d="M14.2358 64.1426C29.2233 73.731 40.9411 88.0217 47.1273 104.258" stroke="#14A2FF" stroke-width="0.256065" stroke-miterlimit="10" stroke-linecap="round"/>
<path d="M33.8079 63.2529C35.6327 70.6417 36.7438 78.1887 37.1257 85.7899" stroke="#14A2FF" stroke-width="0.256065" stroke-miterlimit="10" stroke-linecap="round"/>
<path d="M45.0313 72.5762C44.4246 78.5743 42.5899 84.3833 39.6414 89.6417" stroke="#6F8BBF" stroke-width="0.256065" stroke-miterlimit="10" stroke-linecap="round"/>
<path d="M14.752 81.8271C21.6233 83.1308 28.5946 83.8372 35.5878 83.9385" stroke="#14A2FF" stroke-width="0.256065" stroke-miterlimit="10" stroke-linecap="round"/>
<path d="M18.8779 90.6962C25.1996 90.2356 31.3974 88.7058 37.2073 86.1719" stroke="#14A2FF" stroke-width="0.256065" stroke-miterlimit="10" stroke-linecap="round"/>
<path d="M22.687 99.1522L40.2231 90.4053" stroke="#14A2FF" stroke-width="0.256065" stroke-miterlimit="10" stroke-linecap="round"/>
<path d="M26.4878 104.299C34.1218 102.824 36.3869 101.069 44.8594 98.6377" stroke="#14A2FF" stroke-width="0.256065" stroke-miterlimit="10" stroke-linecap="round"/>
<path d="M74.8042 90.3223C74.8042 90.3223 75.4647 96.3757 76.2037 96.8614C77.5248 97.733 92.8169 99.7478 92.8169 99.7478L92.3162 103.726C92.3162 103.726 71.3718 105.608 70.482 104.562C68.9377 102.752 66.2231 93.9869 66.2231 93.9869L74.8042 90.3223Z" fill="#E06A58"/>
<path d="M64.7061 74.7357L66.3981 70.6729C66.3981 70.6729 70.9888 72.8294 72.5029 75.4987C74.1226 78.346 76.1042 93.4843 76.1042 93.4843C76.1042 93.4843 67.9997 95.3513 66.5097 94.558C65.0197 93.7648 64.7061 74.7357 64.7061 74.7357Z" fill="#F2AE30"/>
<path d="M51.8175 55.8785C50.6321 55.4442 49.3774 55.0641 48.1076 55.1606C46.8377 55.2572 45.5408 55.9388 45.1185 57.0458C44.8169 57.836 44.9526 58.768 44.467 59.4798C43.9814 60.1916 43.0796 60.445 42.2169 60.5023C41.3543 60.5596 40.4796 60.448 39.62 60.5596C36.9658 60.9125 35.0716 63.796 35.9433 66.1576C36.2901 67.0987 37.002 67.9975 36.8481 68.9778C36.6762 70.0274 35.5753 70.7181 35.1229 71.6924C34.5196 72.9893 35.2405 74.5607 36.4259 75.4445C37.6112 76.3282 39.1404 76.651 40.6485 76.8832C42.7086 77.1848 44.835 77.3356 46.8709 76.9013C48.9068 76.467 50.8523 75.3932 51.9049 73.7162C52.3724 72.9742 52.656 72.1357 53.1989 71.439C54.3209 70.0003 56.3086 69.4423 57.874 68.4228C59.5841 67.3038 60.8389 65.1261 59.8315 63.422C58.8603 61.7842 56.3327 61.4192 55.3072 59.8025C54.8879 59.136 54.7884 58.3427 54.517 57.6158C54.2455 56.8889 53.5638 56.5209 51.8175 55.8785Z" fill="#0A2240"/>
<path d="M58.7244 75.9685C59.026 76.3123 59.3759 76.6893 59.8645 76.7225C60.3531 76.7557 60.8116 76.3938 61.1433 76.0409C62.8209 74.2821 63.9706 72.0874 64.4611 69.7069C64.0359 69.4656 63.6257 69.2333 63.2547 69.0162C62.9244 68.8256 62.6618 68.5367 62.5036 68.1897C62.4017 67.9438 62.3634 67.6762 62.392 67.4116C62.5454 65.4197 62.9664 63.4577 63.6438 61.5783C59.8615 60.7247 56.2933 59.7112 54.2423 57.998C53.992 59.0537 53.6964 61.1198 53.066 63.1678C52.3934 65.3364 51.3438 67.4809 49.5642 68.4039C52.9999 70.4231 56.092 72.9766 58.7244 75.9685Z" fill="#F9A07B"/>
<path d="M62.3773 67.4155C62.3485 67.6801 62.3869 67.9478 62.4889 68.1936C60.2509 70.9082 55.2501 67.3612 53.0513 63.1717C53.6817 61.1237 53.9772 59.0576 54.2276 58.002C56.2756 59.7151 59.8467 60.7165 63.629 61.5822C62.9514 63.4615 62.5304 65.4236 62.3773 67.4155Z" fill="#E06A58"/>
<path d="M68.6088 100.231C68.1142 103.507 71.6492 107.033 71.7366 108.782C64.2293 108.782 48.512 109.241 40.495 108.152C40.13 106.131 44.0842 101.586 44.0842 97.0976C44.0842 96.4944 44.0601 95.852 44.0119 95.1522C43.8852 93.1495 43.5896 90.7667 43.2608 88.3236C42.356 81.7694 41.1797 74.7507 42.0544 73.306C43.7736 70.4738 47.7851 68.5495 49.7878 67.723C50.4725 67.4395 50.9189 67.2857 50.9521 67.2676C53.4525 71.5325 58.5408 75.17 60.4621 75.0071C60.996 74.9649 62.5735 74.4039 63.6261 69.1436C64.0333 69.3759 64.4405 69.59 64.8326 69.7982C66.8202 70.8327 68.6843 71.6863 69.2211 73.0164C70.6387 76.5182 72.0292 85.3466 71.7215 88.4864C71.4139 91.6263 70.1531 94.0724 69.2483 97.2605C69.0402 98.0055 68.8501 98.7958 68.6963 99.6463C68.6692 99.8273 68.645 100.026 68.6088 100.231Z" fill="#FFC73C"/>
<path d="M71.7366 108.782C64.2293 108.782 48.512 109.241 40.495 108.152C40.13 106.131 44.0842 101.585 44.0842 97.0974C44.0842 96.4942 44.0601 95.8517 44.0119 95.152C43.8852 93.1492 43.5896 90.7664 43.2608 88.3233C44.6814 89.8314 46.7536 83.4974 47.6705 85.3433C52.6321 95.3571 56.5441 97.9902 63.3547 97.9902C65.3406 97.9719 67.3179 97.727 69.2483 97.2603C69.0402 98.0053 68.8501 98.7955 68.6963 99.6461C68.6601 99.8472 68.6269 100.048 68.5968 100.249C68.1142 103.504 71.6612 107.03 71.7366 108.782Z" fill="#FFBB33"/>
<path d="M64.8473 69.8128C64.5246 72.1564 63.5685 75.3143 60.7875 76.1468C57.0294 77.2718 51.5912 70.2502 49.7905 67.7377C50.4752 67.4542 50.9216 67.3003 50.9548 67.2822C53.4552 71.5471 58.5435 75.1846 60.4648 75.0218C60.9987 74.9795 62.5761 74.4185 63.6288 69.1583C64.036 69.3724 64.4432 69.5866 64.8473 69.8128Z" fill="#FCE172"/>
<path d="M66.3926 105.257L66.3655 107.872L113.116 108.149L113.213 105.185L66.3926 105.257Z" fill="#325F73"/>
<path d="M133.378 81.9263L132.338 80.8707L98.2851 80.6475L81.2014 105.353L82.0942 106.071L133.378 81.9263Z" fill="#325F73"/>
<path d="M98.9427 81.5615L82.0942 106.071L114.277 106.231L133.378 81.9265L98.9427 81.5615Z" fill="#0B2D50"/>
<path d="M107.074 97.2051C109.143 97.2051 110.82 96.3665 110.82 95.332C110.82 94.2976 109.143 93.459 107.074 93.459C105.005 93.459 103.328 94.2976 103.328 95.332C103.328 96.3665 105.005 97.2051 107.074 97.2051Z" fill="#3C738C"/>
<path d="M73.8906 58.6391C74.4215 55.7913 73.3292 53.1989 71.4509 52.8487C69.5726 52.4986 67.6196 54.5233 67.0887 57.371C66.5578 60.2188 67.6501 62.8112 69.5284 63.1614C71.4067 63.5115 73.3598 61.4868 73.8906 58.6391Z" fill="#0069FF"/>
<path d="M73.8901 49.6956C73.5402 52.1749 72.4333 54.9076 70.8196 57.9268C70.2526 55.4535 69.8906 52.4404 69.39 49.4272C68.8893 46.414 68.2317 43.3948 67.1067 40.9215C66.8622 40.3888 66.5862 39.8712 66.2803 39.3712C66.9471 39.3093 67.6197 39.3696 68.2649 39.5492C69.2738 39.8222 70.2039 40.3296 70.9795 41.0301C72.2355 42.2054 73.1497 43.699 73.6247 45.3523C74.0409 46.7613 74.1317 48.2464 73.8901 49.6956Z" fill="#0B2D50"/>
<path d="M71.9959 52.2586C71.9778 52.7473 71.9447 53.2449 71.8994 53.7396C71.2117 61.7626 67.8427 67.2672 62.688 67.2672C55.4099 67.2672 50.6926 59.1054 50.6926 51.1095C50.6926 43.2222 55.5185 37.5125 61.1799 38.1731C64.4404 38.5471 66.8232 39.6299 68.5153 41.2164C69.6197 42.2713 70.4678 43.5651 70.9946 44.9987C71.6312 46.7454 71.9687 48.587 71.9929 50.4459C71.9929 50.4459 71.9929 50.4459 71.9929 50.464C72.0231 51.0492 72.0171 51.6464 71.9959 52.2586Z" fill="#F9A07B"/>
<path d="M71.9961 52.2598C71.7823 51.4777 71.4519 50.7324 71.0158 50.0489C66.6345 52.3295 61.6333 53.1325 56.7583 52.3382L54.0256 54.6214C54.0437 50.9719 54.095 48.5016 55.5186 46.7341C56.8548 45.0752 59.0838 44.4509 61.1951 44.1794C63.5738 43.8671 65.984 43.8824 68.3585 44.2247C69.2801 44.3139 70.176 44.5791 70.9977 45.0058C71.6343 46.7526 71.9718 48.5941 71.9961 50.4531C71.9961 50.4531 71.9961 50.4531 71.9961 50.4712C72.0232 51.0503 72.0172 51.6475 71.9961 52.2598Z" fill="#E06A58"/>
<path d="M73.0455 47.318C71.9457 48.2099 70.712 48.9224 69.3899 49.4293C65.3904 51.043 60.1935 51.5769 56.1428 51.3808C54.1521 55.7543 53.3468 57.3227 52.825 61.1382C50.8796 59.3134 49.2961 55.9715 48.8255 53.3444C48.3276 50.7092 48.4307 47.9956 49.1272 45.4058C49.5826 43.8409 50.3554 42.3866 51.3974 41.1334C52.4394 39.8803 53.7282 38.8551 55.1837 38.1217C55.6049 37.8934 56.0401 37.6919 56.4867 37.5184C59.0534 36.5261 61.946 36.6136 64.5791 37.4219C65.9422 37.8518 67.1929 38.5792 68.2407 39.5513C70.2948 41.4063 71.5585 43.9188 72.385 45.8009C72.6655 46.377 72.8676 46.8897 73.0455 47.318Z" fill="#0B2D50"/>
<path d="M73.8899 49.6946C73.7286 48.8199 73.4727 47.9653 73.1268 47.1459C72.9271 46.6765 72.687 46.2254 72.409 45.7977C71.5243 44.3414 70.1636 43.2354 68.5573 42.6669C68.1216 42.0512 67.6375 41.4712 67.1095 40.9326C65.4411 39.192 63.2538 38.0386 60.8751 37.6449C58.9758 37.3436 57.0317 37.5092 55.2107 38.1275C55.6319 37.8992 56.0671 37.6977 56.5137 37.5243C59.0805 36.532 61.973 36.6194 64.6061 37.4278C65.9693 37.8577 67.2199 38.585 68.2678 39.5572C69.2766 39.8302 70.2067 40.3376 70.9823 41.0381C72.2384 42.2134 73.1525 43.7071 73.6275 45.3603C74.0399 46.767 74.1296 48.2485 73.8899 49.6946Z" fill="#225570"/>
<path d="M58.4619 54.6145C59.8071 53.8453 61.2036 53.4985 63.1611 54.2133" stroke="#0B2D50" stroke-width="0.51213" stroke-miterlimit="10" stroke-linecap="round"/>
<path d="M67.6736 54.5607C68.8258 53.7011 70.5329 53.6136 71.4227 54.5607" stroke="#0B2D50" stroke-width="0.51213" stroke-miterlimit="10" stroke-linecap="round"/>
<path d="M66.2838 58.9541C66.4015 59.5573 66.3381 60.9116 66.0486 61.5179" stroke="#CC454E" stroke-width="0.51213" stroke-miterlimit="10" stroke-linecap="round"/>
<path d="M61.7381 59.3568C62.0446 59.3568 62.2931 58.9652 62.2931 58.4821C62.2931 57.999 62.0446 57.6074 61.7381 57.6074C61.4316 57.6074 61.1831 57.999 61.1831 58.4821C61.1831 58.9652 61.4316 59.3568 61.7381 59.3568Z" fill="#262D40"/>
<path d="M68.9917 58.9496C69.2983 58.9496 69.5467 58.558 69.5467 58.0749C69.5467 57.5918 69.2983 57.2002 68.9917 57.2002C68.6852 57.2002 68.4368 57.5918 68.4368 58.0749C68.4368 58.558 68.6852 58.9496 68.9917 58.9496Z" fill="#262D40"/>
<path d="M65.5951 62.7011C65.506 62.8736 65.4052 63.0399 65.2935 63.1987C64.8918 63.7823 64.3199 64.2279 63.6557 64.4746C63.3161 64.5853 62.9542 64.6091 62.6031 64.544C61.469 64.3419 61.1704 63.2953 61.1161 62.4899C61.1088 62.3453 61.1088 62.2003 61.1161 62.0556C61.1181 61.8739 61.1322 61.6925 61.1583 61.5127C62.9378 62.508 65.5951 62.7011 65.5951 62.7011Z" fill="#CC454E"/>
<path d="M65.5958 62.7011C65.5068 62.8736 65.406 63.0399 65.2942 63.1987C64.3713 63.1987 62.4831 62.7131 61.1047 62.0556C61.1068 61.8739 61.1209 61.6925 61.147 61.5127C62.9386 62.508 65.5958 62.7011 65.5958 62.7011Z" fill="white"/>
<path d="M63.6383 64.471C63.2987 64.5816 62.9368 64.6055 62.5856 64.5403C61.4515 64.3383 61.1529 63.2916 61.0986 62.4863C61.6636 62.5512 62.1997 62.7709 62.6479 63.1211C63.096 63.4713 63.4387 63.9384 63.6383 64.471Z" fill="#E8729B"/>
<path d="M52.8554 53.2233C52.8915 50.6522 53.4028 48.1101 54.3635 45.725C56.3271 41.0349 60.3295 39.0291 64.2114 38.8934C65.6131 38.8602 67.0075 39.106 68.3134 39.6165C69.6193 40.1271 70.8107 40.8922 71.8182 41.8673C71.8182 41.8673 70.295 39.1799 67.2939 38.4078C65.3213 37.901 62.3444 37.8045 59.9555 38.7908C57.4943 39.7892 54.4269 42.561 53.3199 45.4898C52.213 48.4185 51.6731 52.979 51.6731 52.979L52.8554 53.2233Z" fill="#0056D2"/>
<path d="M52.2863 62.8281C54.2801 62.6267 55.649 60.0143 55.3438 56.993C55.0386 53.9718 53.1749 51.6859 51.1811 51.8873C49.1873 52.0887 47.8184 54.7011 48.1236 57.7223C48.4288 60.7436 50.2925 63.0295 52.2863 62.8281Z" fill="#0069FF"/>
<path d="M51.8609 62.0433C53.1541 61.8489 53.9251 59.8472 53.5831 57.5723C53.2411 55.2974 51.9155 53.6108 50.6224 53.8052C49.3293 53.9996 48.5583 56.0014 48.9003 58.2763C49.2423 60.5512 50.5678 62.2377 51.8609 62.0433Z" fill="#0056D2"/>
<path d="M64.2349 67.3789C65.3077 67.3789 66.1773 66.8374 66.1773 66.1695C66.1773 65.5015 65.3077 64.96 64.2349 64.96C63.1621 64.96 62.2925 65.5015 62.2925 66.1695C62.2925 66.8374 63.1621 67.3789 64.2349 67.3789Z" fill="#0056D2"/>
<path d="M54.469 62.124C54.469 62.124 57.3223 65.7917 62.2839 66.1687" stroke="#0069FF" stroke-width="0.51213" stroke-miterlimit="10" stroke-linecap="round"/>
<path d="M66.3646 98.2737L66.1776 103.1C66.1776 103.1 48.738 108.324 45.8545 106.671C44.449 105.862 43.1399 101.417 42.1567 97.0763C41.1312 92.5158 40.4736 88.076 40.4736 88.076L50.6985 86.0732C50.6985 86.0732 50.6985 92.3077 51.0514 95.912C51.1751 97.2542 51.353 98.2315 51.5913 98.3913C52.4931 98.9855 66.3646 98.2737 66.3646 98.2737Z" fill="#F9A07B"/>
<path d="M51.0514 95.9071C49.1934 96.5103 45.6223 97.4423 42.1567 97.0743C41.1312 92.5139 40.4736 88.074 40.4736 88.074L50.6985 86.0713C50.6985 86.0713 50.7045 92.3027 51.0514 95.9071Z" fill="#E06A58"/>
<path d="M65.8669 98.3217C68.4608 97.7668 72.8524 96.4336 74.6742 95.9751C75.9681 95.6494 79.3372 97.3928 80.227 99.0366C80.6161 99.7544 80.984 103.82 79.6237 103.401C78.9481 103.19 79.0597 101.446 78.8486 100.735C78.6766 100.156 78.1277 99.5946 77.2922 99.112C77.8502 100.502 77.8291 101.715 77.7688 103.217C77.7807 103.549 77.7146 103.88 77.5757 104.182C77.5046 104.329 77.384 104.446 77.235 104.513C77.0861 104.58 76.9184 104.592 76.7614 104.547C76.4598 104.42 76.3482 104.037 76.2788 103.703C76.0063 102.51 75.8139 101.301 75.7027 100.083C75.7268 101.371 75.7027 102.662 75.6182 103.947C75.5579 104.93 75.0693 105.47 74.4691 105.298C74.2006 105.223 74.092 104.975 73.9774 104.65C73.7965 105.28 73.344 105.977 72.771 105.711C72.415 105.552 72.1949 104.267 72.2582 102.946C71.09 103.629 69.7629 103.994 68.4096 104.004C67.1005 104.065 65.7613 103.82 64.9741 102.93C65.1147 101.368 65.4139 99.8237 65.8669 98.3217Z" fill="#F9A07B"/>
<path d="M74.0167 104.445C74.1046 103.4 74.0138 102.349 73.7483 101.335" stroke="#CC454E" stroke-width="0.256065" stroke-miterlimit="10" stroke-linecap="round"/>
<path d="M49.5499 75.958C48.8079 73.8678 46.0903 69.5908 46.0903 69.5908C46.0903 69.5908 41.9431 71.3161 40.4712 74.2448C37.9798 79.2034 39.2466 93.4398 39.2466 93.4398C42.6036 94.8453 49.3418 94.8664 52.2162 94.4623C52.2102 94.4623 51.0369 80.1354 49.5499 75.958Z" fill="#FFC73C"/>
<path d="M50.0774 76.832C51.153 81.9052 51.7987 87.06 52.0077 92.2417" stroke="#F2AE30" stroke-width="0.256065" stroke-miterlimit="10" stroke-linecap="round"/>
<path d="M138.843 107.289H19.9211V110.272H138.843V107.289Z" fill="white"/>
</svg>
