<svg width="16" height="16" viewBox="0 0 16 16" fill="none" xmlns="http://www.w3.org/2000/svg">
<path d="M10.6665 6.66602H11.9998" stroke="#0056D2" stroke-width="0.666667" stroke-linecap="round" stroke-linejoin="round"/>
<path d="M10.6665 9.33398H11.9998" stroke="#0056D2" stroke-width="0.666667" stroke-linecap="round" stroke-linejoin="round"/>
<path d="M4.11328 10.0004C4.25071 9.60971 4.50602 9.27134 4.84396 9.03198C5.18191 8.79262 5.58582 8.66406 5.99995 8.66406C6.41408 8.66406 6.81799 8.79262 7.15594 9.03198C7.49388 9.27134 7.74919 9.60971 7.88661 10.0004" stroke="#0056D2" stroke-width="0.666667" stroke-linecap="round" stroke-linejoin="round"/>
<path d="M5.99984 8.66667C6.73622 8.66667 7.33317 8.06971 7.33317 7.33333C7.33317 6.59695 6.73622 6 5.99984 6C5.26346 6 4.6665 6.59695 4.6665 7.33333C4.6665 8.06971 5.26346 8.66667 5.99984 8.66667Z" stroke="#0056D2" stroke-width="0.666667" stroke-linecap="round" stroke-linejoin="round"/>
<path d="M13.3335 3.33398H2.66683C1.93045 3.33398 1.3335 3.93094 1.3335 4.66732V11.334C1.3335 12.0704 1.93045 12.6673 2.66683 12.6673H13.3335C14.0699 12.6673 14.6668 12.0704 14.6668 11.334V4.66732C14.6668 3.93094 14.0699 3.33398 13.3335 3.33398Z" stroke="#0056D2" stroke-width="0.666667" stroke-linecap="round" stroke-linejoin="round"/>
</svg>
