<svg width="320" height="320" viewBox="0 0 320 320" fill="none" xmlns="http://www.w3.org/2000/svg">
<path d="M259.84 200.32C259.84 200.32 272.448 126.464 261.888 115.968C251.328 105.472 202.816 103.552 192 106.368C181.184 109.184 172.8 183.936 172.8 183.936L259.84 200.32Z" fill="#231F20"/>
<path d="M259.84 200.768H259.776L172.736 184.448C172.48 184.384 172.352 184.192 172.352 183.936C172.672 180.864 180.8 108.8 191.872 105.984C201.984 103.36 251.136 104.832 262.208 115.712C272.832 126.208 260.864 197.44 260.288 200.448C260.288 200.576 260.224 200.64 260.096 200.768C260.032 200.704 259.904 200.768 259.84 200.768ZM173.312 183.616L259.52 199.808C260.544 193.6 271.488 126.08 261.568 116.288C257.088 111.872 244.48 108.352 227.008 106.624C213.056 105.28 197.696 105.344 192.128 106.816C189.184 107.584 184.448 115.072 178.816 146.304C175.616 163.584 173.632 180.736 173.312 183.616Z" fill="#231F20"/>
<path d="M246.912 146.496C246.592 146.496 246.464 146.24 246.464 145.984C248.256 125.184 255.36 117.76 255.68 117.44C255.808 117.248 256.128 117.184 256.32 117.312C256.512 117.44 256.576 117.76 256.448 117.952C256.384 118.016 256.384 118.016 256.32 118.08C256.256 118.144 249.152 125.632 247.36 146.048C247.296 146.304 247.104 146.496 246.912 146.496Z" fill="white"/>
<path d="M239.134 119.3L239.134 119.3C239.646 121.171 239.951 123.946 240.082 127.399C240.212 130.845 240.169 134.934 239.999 139.416C239.657 148.381 238.806 158.896 237.823 168.935C236.839 178.974 235.724 188.532 234.854 195.58C234.419 199.104 234.046 202 233.781 204.016C233.649 205.023 233.544 205.811 233.472 206.346C233.463 206.413 233.454 206.476 233.446 206.535L176.275 184.155C176.312 184.102 176.351 184.044 176.392 183.982C176.702 183.513 177.124 182.814 177.583 181.883C178.501 180.021 179.565 177.229 180.174 173.488C181.392 166.001 180.778 154.746 173.572 139.562L173.572 139.561C170.675 133.484 170.747 128.919 171.983 125.473C173.225 122.009 175.668 119.6 177.665 117.888C177.821 117.762 178.174 117.575 178.761 117.343C179.336 117.116 180.089 116.863 181 116.593C182.819 116.053 185.24 115.453 188.068 114.861C193.723 113.675 200.98 112.525 208.256 111.947C215.539 111.368 222.809 111.366 228.505 112.46C234.249 113.564 238.161 115.734 239.134 119.3Z" fill="white" stroke="black"/>
<path d="M292.3 223.155L167.348 252.298V216.643L292.3 203.818V223.155Z" fill="#231F20" stroke="white"/>
<path d="M166.848 253.376C166.72 253.376 166.656 253.312 166.592 253.312C166.464 253.248 166.4 253.12 166.4 252.928V216.192C166.4 215.936 166.592 215.744 166.784 215.744L292.8 202.816C292.928 202.816 293.056 202.816 293.184 202.944C293.312 203.008 293.312 203.136 293.312 203.264V223.552C293.312 223.744 293.184 223.936 292.928 224L166.912 253.376H166.848ZM167.296 216.64V252.352L292.352 223.232V203.84L167.296 216.64Z" fill="#231F20"/>
<path d="M166.348 252.225L29.1719 204.509V183.324L166.348 209.31V252.225Z" fill="#231F20" stroke="white"/>
<path d="M166.848 253.376C166.784 253.376 166.72 253.376 166.72 253.376L28.5436 205.312C28.3516 205.248 28.2236 205.056 28.2236 204.864V182.72C28.2236 182.592 28.2876 182.464 28.4156 182.336C28.5436 182.272 28.6716 182.208 28.7996 182.272L166.976 208.448C167.168 208.512 167.36 208.704 167.36 208.896V252.928C167.36 253.056 167.296 253.248 167.168 253.312C167.04 253.376 166.912 253.376 166.848 253.376ZM29.1196 204.544L166.4 252.288V209.28L29.1196 183.296V204.544Z" fill="#231F20"/>
<path d="M297.344 199.68V207.232L167.68 234.24L22.6562 184.576V178.56L297.344 199.68Z" fill="white"/>
<path d="M167.68 234.688C167.616 234.688 167.552 234.688 167.552 234.688L22.528 185.024C22.336 184.96 22.208 184.768 22.208 184.576V178.56C22.208 178.432 22.272 178.304 22.336 178.24C22.4 178.176 22.528 178.112 22.656 178.112L297.28 199.232C297.536 199.232 297.664 199.424 297.664 199.68V207.232C297.664 207.424 297.536 207.616 297.344 207.68L167.68 234.624V234.688ZM23.104 184.256L167.68 233.728L296.896 206.848V200.064L23.104 179.008V184.256Z" fill="#231F20"/>
<path d="M117.12 161.984L297.344 199.68L167.68 224.64L22.6562 178.56L117.12 161.984Z" fill="white"/>
<path d="M167.68 225.088C167.616 225.088 167.616 225.088 167.552 225.088L22.5922 179.008C22.3362 178.944 22.2082 178.688 22.2722 178.432C22.3362 178.24 22.4642 178.112 22.6562 178.112L117.12 161.536C117.184 161.536 117.248 161.536 117.312 161.536L297.536 199.232C297.728 199.296 297.92 199.488 297.92 199.68C297.92 199.872 297.728 200.064 297.536 200.128L167.872 225.088H167.68ZM24.6402 178.688L167.68 224.128L294.976 199.616L117.12 162.432L24.6402 178.688Z" fill="#231F20"/>
<path d="M167.68 234.688C167.424 234.688 167.232 234.496 167.232 234.24V224.64C167.232 224.384 167.424 224.192 167.68 224.192C167.936 224.192 168.128 224.384 168.128 224.64V234.24C168.128 234.496 167.936 234.688 167.68 234.688Z" fill="#231F20"/>
<path d="M175.552 188.224C175.552 188.224 131.648 174.4 130.88 174.4C130.112 174.4 74.624 183.936 74.624 183.936L120.704 199.68L175.552 188.224Z" fill="white"/>
<path d="M120.768 200.128C120.704 200.128 120.64 200.128 120.64 200.128L74.5599 184.384C74.3039 184.32 74.1759 184.064 74.2399 183.808C74.3039 183.616 74.4319 183.488 74.6239 183.488C80.3199 182.528 130.176 173.952 130.944 173.952C131.712 173.952 165.44 184.576 175.744 187.84C176 187.904 176.128 188.16 176.064 188.416C176 188.544 175.872 188.672 175.744 188.736L120.896 200.192C120.832 200.128 120.768 200.128 120.768 200.128ZM76.5439 184.064L120.768 199.168L173.76 188.096C160.768 184 131.968 174.976 130.88 174.784C129.984 174.912 95.9359 180.736 76.5439 184.064Z" fill="#231F20"/>
<path d="M114.56 193.984C114.496 193.984 114.432 193.984 114.368 193.92L89.9201 182.912C89.7281 182.848 89.6641 182.656 89.6641 182.464C89.6641 182.272 89.8561 182.144 90.0481 182.08L118.592 178.048C118.656 178.048 118.72 178.048 118.848 178.048L144.256 188.864C144.448 188.928 144.576 189.12 144.512 189.312C144.512 189.504 144.32 189.696 144.128 189.696L114.56 193.984ZM91.7121 182.784L114.624 193.088L142.464 189.12L118.656 179.008L91.7121 182.784Z" fill="#D1D3D4"/>
<path d="M120.768 199.68L175.808 193.152L175.616 188.224L120.768 195.584V199.68Z" fill="white"/>
<path d="M120.767 200.128C120.639 200.128 120.575 200.064 120.447 200C120.383 199.936 120.319 199.808 120.319 199.68V195.584C120.319 195.328 120.511 195.136 120.703 195.136L175.551 187.776C175.679 187.776 175.807 187.776 175.935 187.904C176.063 187.968 176.063 188.096 176.127 188.224L176.383 193.152C176.383 193.408 176.191 193.6 175.999 193.664L120.895 200.128H120.767ZM121.215 195.968V199.168L175.359 192.768L175.167 188.736L121.215 195.968Z" fill="#231F20"/>
<path d="M64.8559 124.499L110.217 126.814L120.162 198.943L75.1297 183.495L64.8559 124.499Z" fill="#231F20" stroke="white"/>
<path d="M120.768 200.128C120.704 200.128 120.64 200.128 120.64 200.128L74.5596 184.384C74.3676 184.32 74.3036 184.192 74.2396 184L63.8076 124.096C63.8076 123.968 63.8076 123.84 63.9356 123.712C63.9996 123.584 64.1916 123.584 64.3196 123.584L110.784 125.952C110.976 125.952 111.168 126.144 111.232 126.336L121.344 199.616C121.344 199.808 121.28 199.936 121.152 200.064C120.96 200.064 120.896 200.128 120.768 200.128ZM75.0716 183.552L120.192 198.976L110.272 126.784L64.8316 124.48L75.0716 183.552Z" fill="#231F20"/>
<path d="M144.704 186.496C144.64 186.496 144.576 186.496 144.576 186.496L129.28 181.12C129.088 181.056 128.96 180.864 128.96 180.672C128.96 180.48 129.152 180.288 129.344 180.288L138.048 178.944C138.112 178.944 138.176 178.944 138.24 178.944L153.792 184.64C153.984 184.704 154.112 184.896 154.048 185.088C154.048 185.28 153.856 185.472 153.664 185.472L144.704 186.496ZM131.264 180.864L144.768 185.6L151.744 184.832L138.112 179.84L131.264 180.864Z" fill="#D1D3D4"/>
<path d="M144.769 114.944C144.769 114.944 145.473 104.64 144.769 101.76C144.065 98.8797 140.033 92.0317 138.689 92.5437C137.345 93.0557 137.153 95.0397 138.689 97.7277C138.689 97.7277 130.113 90.7517 126.849 90.8797C123.585 91.0077 121.729 95.2317 122.241 97.2157C122.753 99.1997 130.305 102.72 130.817 104.448C131.329 106.176 132.673 117.76 132.673 117.76" fill="white"/>
<path d="M132.672 118.208C132.416 118.208 132.288 118.016 132.224 117.824C132.224 117.696 130.88 106.24 130.368 104.576C130.176 103.936 128.192 102.592 126.592 101.568C124.288 100.032 122.112 98.6239 121.792 97.3439C121.472 96.0639 121.984 94.0799 123.072 92.6079C123.904 91.3919 125.312 90.5599 126.784 90.4959C129.408 90.4319 134.848 94.3359 137.472 96.3199C137.088 95.4239 137.024 94.3359 137.28 93.3759C137.472 92.7999 137.92 92.3519 138.496 92.1599C138.816 92.0319 139.136 92.0959 139.392 92.2879C141.248 93.2479 144.576 99.2639 145.152 101.76C145.856 104.64 145.216 114.624 145.152 115.072C145.152 115.328 144.896 115.52 144.704 115.456C144.448 115.456 144.256 115.2 144.256 115.008C144.256 114.88 144.896 104.768 144.256 101.952C143.552 98.8799 139.712 92.9279 138.752 93.0559C138.432 93.1839 138.24 93.4399 138.112 93.7599C137.792 94.6559 138.112 96.0639 139.008 97.6639C139.136 97.8559 139.072 98.1759 138.816 98.3039C138.624 98.3679 138.432 98.3679 138.304 98.2399C135.936 96.3199 129.344 91.3919 126.72 91.4559C125.504 91.5839 124.352 92.2239 123.648 93.2479C122.752 94.4639 122.24 96.1919 122.496 97.2799C122.752 98.1759 125.056 99.7119 126.912 100.928C129.344 102.528 130.816 103.552 131.072 104.448C131.584 106.176 132.864 117.376 132.928 117.824C133.12 117.952 132.928 118.208 132.672 118.208Z" fill="#231F20"/>
<path d="M183.405 193.417C183.439 193.251 183.478 193.055 183.521 192.83C183.663 192.071 183.843 190.991 183.993 189.705C184.277 187.267 184.453 184.068 184.051 180.903C184.366 180.857 184.826 180.789 185.41 180.702C186.586 180.525 188.266 180.268 190.28 179.946C194.308 179.303 199.676 178.4 205.031 177.363C210.383 176.326 215.736 175.152 219.73 173.966C221.722 173.374 223.401 172.772 224.575 172.172C225.16 171.874 225.649 171.562 225.991 171.231C226.326 170.908 226.597 170.489 226.545 169.996C226.483 169.396 226.201 168.418 225.787 167.201C225.368 165.967 224.794 164.438 224.121 162.71C223.221 160.401 222.138 157.723 220.997 154.903C220.431 153.504 219.851 152.071 219.272 150.629C217.524 146.278 215.786 141.855 214.469 138.094C213.811 136.214 213.26 134.505 212.866 133.058C212.47 131.602 212.242 130.441 212.212 129.645C212.16 128.269 213.14 127.231 215.118 126.544C217.083 125.861 219.856 125.604 222.942 125.715C229.012 125.934 236.076 127.566 240.174 129.907L243.344 155.58C244.304 163.425 245.115 171.068 244.932 177.217C244.841 180.291 244.502 182.963 243.823 185.085C243.144 187.209 242.142 188.733 240.76 189.591C240.092 190.006 238.702 190.409 236.687 190.776C234.699 191.137 232.178 191.45 229.312 191.721C223.581 192.263 216.503 192.632 209.606 192.884C202.711 193.136 196.005 193.27 191.022 193.341C188.531 193.376 186.471 193.396 185.034 193.407C184.337 193.412 183.787 193.415 183.405 193.417Z" fill="white" stroke="#231F20"/>
<path d="M148.302 136.484L148.302 136.484L148.301 136.49C148.293 136.69 148.322 136.903 148.432 137.095C148.548 137.296 148.725 137.427 148.923 137.498C149.28 137.624 149.711 137.558 150.111 137.444C150.948 137.207 152.105 136.625 153.444 135.836C156.141 134.247 159.74 131.719 163.33 129.066C166.924 126.41 170.522 123.616 173.221 121.488C174.571 120.423 175.697 119.524 176.485 118.892C176.773 118.66 177.017 118.464 177.209 118.309L187.37 142.08C187.206 142.227 186.954 142.445 186.598 142.739C185.854 143.352 184.657 144.291 182.853 145.586C179.245 148.175 173.21 152.182 163.525 157.84C155.939 162.257 149.399 165.371 143.806 165.943C141.024 166.227 138.492 165.88 136.185 164.761C133.876 163.641 131.755 161.73 129.825 158.827C129.1 157.735 128.548 156.191 128.155 154.288C127.762 152.391 127.532 150.171 127.429 147.751C127.224 142.911 127.528 137.317 128.027 131.999C128.525 126.684 129.218 121.658 129.786 117.96C130.07 116.111 130.323 114.595 130.504 113.542C130.595 113.015 130.668 112.604 130.719 112.325C130.721 112.313 130.723 112.302 130.725 112.291L147.803 111.561L147.816 112.054C147.833 112.691 147.858 113.605 147.887 114.709C147.945 116.917 148.021 119.884 148.093 122.924C148.237 129.022 148.364 135.358 148.302 136.484Z" fill="white" stroke="black"/>
<path d="M183.488 180.544C183.488 180.544 174.528 180.928 173.312 179.2C172.096 177.472 170.176 175.424 169.024 175.232C167.872 175.04 153.856 176.64 154.624 178.112C155.392 179.584 161.536 178.304 161.536 178.304C161.536 178.304 156.288 179.648 156.48 181.44C156.672 183.232 157.952 182.976 159.936 182.336C161.92 181.696 166.784 180.48 166.784 180.48C166.784 180.48 159.36 183.936 159.232 185.728C159.104 187.52 162.688 186.624 167.744 183.872C167.744 183.872 161.856 187.584 163.648 188.672C165.504 189.76 169.792 187.52 169.792 187.52C169.792 187.52 171.84 190.784 174.528 191.616C177.216 192.448 182.976 192.384 182.976 192.384C182.976 192.384 185.856 186.304 183.488 180.544Z" fill="white"/>
<path d="M182.784 192.768C181.504 192.768 176.96 192.704 174.528 192C172.096 191.296 170.368 188.992 169.728 188.096C168.576 188.672 165.248 190.08 163.52 189.056C163.2 188.864 162.944 188.48 162.944 188.096C163.072 187.328 163.52 186.624 164.096 186.112C162.176 186.88 160.256 187.392 159.36 186.816C158.976 186.56 158.784 186.112 158.848 185.664C158.912 184.512 160.96 183.104 163.008 181.888C161.92 182.208 160.832 182.464 160.128 182.72C158.784 183.168 157.632 183.488 156.864 182.976C156.352 182.592 156.096 182.08 156.032 181.44C155.904 180.544 156.672 179.84 157.696 179.264C156.16 179.328 154.624 179.136 154.176 178.304C154.048 178.048 154.048 177.728 154.24 177.536C155.392 175.872 167.936 174.592 169.024 174.784C170.496 175.04 172.672 177.664 173.568 178.944C174.272 179.968 179.712 180.224 183.296 180.096C183.488 180.096 183.68 180.224 183.744 180.416C186.176 186.304 183.488 192.32 183.36 192.576C183.296 192.768 183.104 192.832 182.976 192.832L182.784 192.768ZM169.92 187.008C170.048 187.008 170.24 187.072 170.304 187.2C170.304 187.2 172.288 190.336 174.784 191.104C177.088 191.808 181.568 191.808 182.784 191.808C183.232 190.592 184.96 185.728 183.104 180.992C180.992 181.056 174.08 181.184 172.864 179.456C171.456 177.472 169.728 175.808 168.896 175.616C167.488 175.36 156.352 176.896 155.072 177.92C155.712 178.496 158.784 178.304 161.408 177.792C161.664 177.728 161.92 177.92 161.92 178.112C161.984 178.368 161.856 178.624 161.6 178.688C159.616 179.2 156.8 180.352 156.928 181.248C156.928 181.568 157.056 181.888 157.312 182.144C157.76 182.4 158.848 182.144 159.808 181.824C161.792 181.184 166.528 180.032 166.72 179.968C166.976 179.904 167.232 180.032 167.296 180.224C167.36 180.48 167.232 180.736 167.04 180.8C163.584 182.4 159.808 184.704 159.744 185.664C159.744 185.92 159.808 185.984 159.872 185.984C160.384 186.304 162.56 186.112 167.616 183.36C167.872 183.232 168.128 183.296 168.256 183.552C168.384 183.744 168.32 184.064 168.128 184.192C166.08 185.472 163.904 187.328 163.904 188.032C163.904 188.096 163.904 188.096 164.032 188.224C165.312 188.992 168.576 187.648 169.728 187.008C169.792 187.008 169.856 187.008 169.92 187.008Z" fill="#231F20"/>
<path d="M194.752 68.3519C194.752 68.3519 185.28 68.6719 182.528 73.2799C179.776 77.8879 180.096 84.6079 176.576 89.0239C173.056 93.4399 168.64 102.848 170.88 107.712C173.12 112.576 196.736 113.792 209.088 108.224C221.44 102.656 222.08 92.6079 221.12 86.2719C220.16 79.9359 215.616 62.5279 194.752 68.3519Z" fill="white"/>
<path d="M188.224 112.32C187.52 112.32 186.88 112.32 186.176 112.256C179.52 112.064 171.84 110.784 170.496 107.84C168.192 102.912 172.416 93.376 176.256 88.704C178.176 86.336 178.944 83.2 179.648 80.192C180.288 77.696 180.928 75.072 182.208 72.96C185.024 68.352 193.92 67.84 194.752 67.84C201.856 65.856 207.808 66.368 212.352 69.376C219.136 73.792 221.056 82.56 221.568 86.08C222.592 93.312 221.312 103.04 209.28 108.544C204.032 110.912 196.288 112.32 188.224 112.32ZM202.56 67.648C199.936 67.712 197.376 68.096 194.88 68.8H194.752C194.688 68.8 185.472 69.184 182.848 73.472C181.632 75.456 181.056 77.888 180.416 80.448C179.648 83.584 178.88 86.784 176.832 89.28C173.056 93.888 169.152 103.04 171.2 107.456C173.184 111.68 196.16 113.472 208.768 107.712C220.352 102.464 221.568 93.12 220.544 86.208C220.032 82.752 218.176 74.368 211.712 70.144C209.088 68.416 205.824 67.52 202.56 67.648Z" fill="#231F20"/>
<path d="M211.648 121.216C211.648 121.216 203.968 140.032 197.568 139.52C191.168 139.008 191.36 124.992 191.36 124.992L211.648 121.216Z" fill="#231F20"/>
<path d="M197.76 139.968C197.632 139.968 197.568 139.968 197.44 139.968C190.72 139.392 190.784 125.568 190.784 124.992C190.784 124.8 190.912 124.608 191.168 124.544L211.456 120.768C211.648 120.768 211.776 120.768 211.904 120.896C212.032 121.024 212.032 121.216 211.968 121.344C211.712 122.176 204.352 139.968 197.76 139.968ZM191.744 125.376C191.744 127.552 192.192 138.624 197.568 139.072C202.304 139.456 208.512 127.424 210.88 121.792L191.744 125.376Z" fill="#231F20"/>
<path d="M193.025 111.872L191.297 124.992C191.297 124.992 193.473 130.368 202.241 129.536C207.681 129.024 211.585 121.216 211.585 121.216L213.313 95.5521C213.313 95.5521 201.153 88.8321 194.113 77.1841C194.113 77.1841 188.353 86.7201 184.129 85.8241C184.129 85.8241 182.785 98.6881 184.257 105.28C185.729 111.872 193.025 111.872 193.025 111.872Z" fill="white"/>
<path d="M200.384 130.048C192.96 130.048 190.976 125.376 190.912 125.12C190.912 125.056 190.848 124.992 190.912 124.864L192.576 112.256C190.848 112.064 185.28 111.104 183.936 105.344C182.4 98.816 183.744 86.272 183.808 85.76C183.808 85.632 183.872 85.504 184 85.44C184.128 85.376 184.256 85.312 184.384 85.376C187.584 86.08 192.384 79.552 193.92 76.992C194.048 76.8 194.368 76.736 194.56 76.864C194.624 76.864 194.624 76.928 194.688 76.992C201.6 88.384 213.568 95.104 213.696 95.168C213.824 95.232 213.952 95.424 213.952 95.616L212.224 121.28C212.224 121.344 212.224 121.408 212.16 121.472C211.968 121.792 208.064 129.472 202.432 130.048C201.664 130.048 201.024 130.048 200.384 130.048ZM191.808 124.928C192.128 125.632 194.496 129.856 202.24 129.088C207.104 128.576 210.752 121.92 211.2 121.088L212.928 95.808C211.2 94.784 200.704 88.384 194.176 78.08C192.832 80.128 188.352 86.592 184.576 86.336C184.32 88.704 183.424 99.456 184.768 105.152C186.176 111.296 192.768 111.424 193.024 111.424C193.152 111.424 193.28 111.488 193.344 111.552C193.408 111.616 193.472 111.808 193.472 111.936L191.808 124.928Z" fill="#231F20"/>
<path d="M192.129 118.784C195.137 119.168 198.209 118.016 200.193 115.712C203.713 111.808 202.881 111.104 202.881 111.104C199.681 112.128 196.289 112.384 193.025 111.936L192.129 118.784Z" fill="#231F20"/>
<path d="M193.217 119.296C192.833 119.296 192.449 119.296 192.065 119.232C191.809 119.168 191.681 118.976 191.681 118.72L192.577 111.808C192.577 111.552 192.833 111.424 193.089 111.424C196.353 111.872 199.617 111.552 202.753 110.592C202.881 110.528 203.073 110.592 203.201 110.656C203.329 110.784 203.585 111.104 203.265 112C202.945 112.896 201.985 114.24 200.513 115.904C198.721 118.08 196.033 119.296 193.217 119.296ZM192.641 118.4C195.393 118.592 198.081 117.504 199.873 115.392C201.729 113.28 202.305 112.192 202.497 111.68C199.553 112.512 196.481 112.768 193.409 112.384L192.641 118.4Z" fill="#231F20"/>
<path d="M195.968 91.1357C195.968 91.1357 191.744 98.0477 192.832 99.1357C193.92 100.224 196.928 99.3917 196.928 99.3917" fill="white"/>
<path d="M194.689 100.16C193.921 100.224 193.089 99.9681 192.513 99.4561C191.297 98.2401 194.241 93.0561 195.585 90.8801C195.713 90.6881 195.969 90.6241 196.161 90.6881C196.161 90.6881 196.161 90.6881 196.225 90.6881C196.417 90.8161 196.545 91.0721 196.417 91.3281C194.241 94.8481 192.769 98.3041 193.217 98.8161C193.985 99.5841 196.097 99.1361 196.865 98.9441C197.121 98.8801 197.377 99.0081 197.441 99.2641C197.505 99.5201 197.377 99.7761 197.121 99.8401C196.289 100.032 195.521 100.16 194.689 100.16Z" fill="#231F20"/>
<path d="M201.532 91.9517C202.128 91.8773 202.527 91.1347 202.422 90.2929C202.317 89.4511 201.748 88.829 201.152 88.9034C200.556 88.9778 200.157 89.7205 200.262 90.5623C200.367 91.404 200.936 92.0261 201.532 91.9517Z" fill="#231F20"/>
<path d="M191.944 91.1161C192.097 90.246 191.742 89.4558 191.151 89.3513C190.559 89.2467 189.955 89.8673 189.801 90.7375C189.647 91.6076 190.002 92.3977 190.594 92.5023C191.186 92.6069 191.79 91.9862 191.944 91.1161Z" fill="#231F20"/>
<path d="M195.584 105.344C193.216 105.472 191.04 104.128 190.08 101.952C190.016 101.824 190.08 101.632 190.144 101.568C190.208 101.44 190.336 101.376 190.528 101.376C200.704 101.376 200.768 101.44 200.896 101.632C200.96 101.696 201.024 101.824 201.024 101.952C201.024 102.016 200.96 102.08 200.96 102.208C200.896 102.336 198.784 105.216 196.224 105.408H195.584V105.344ZM191.232 102.272C191.808 103.168 193.216 104.704 196.096 104.448C197.568 104.32 198.912 103.104 199.616 102.272C197.952 102.272 194.112 102.272 191.232 102.272Z" fill="#231F20"/>
<path d="M214.912 91.1999C214.912 91.1999 218.432 76.1599 211.904 70.3359C205.376 64.5119 194.752 68.3519 194.752 68.3519C194.752 68.3519 206.72 67.5839 209.152 73.0239C211.584 78.4639 209.664 93.7599 209.664 93.7599L214.912 91.1999Z" fill="#231F20"/>
<path d="M209.665 94.2079C209.601 94.2079 209.473 94.2079 209.409 94.1439C209.281 94.0159 209.217 93.8879 209.217 93.6959C209.217 93.5679 211.137 78.3999 208.769 73.1519C206.465 68.0959 194.945 68.7359 194.817 68.7359C194.561 68.7359 194.369 68.5439 194.305 68.3519C194.305 68.1599 194.433 67.9679 194.625 67.9039C195.073 67.7759 205.569 64.0639 212.225 70.0159C218.881 75.9679 215.489 90.6879 215.361 91.3279C215.361 91.4559 215.233 91.5839 215.105 91.6479L209.857 94.2079C209.793 94.2079 209.729 94.2079 209.665 94.2079ZM198.401 67.9039C202.241 68.0959 207.937 69.1199 209.601 72.7679C211.777 77.5679 210.561 89.6639 210.241 92.9279L214.529 90.8159C214.913 89.0239 217.473 75.8399 211.649 70.5919C207.617 67.0719 201.985 67.2639 198.401 67.9039Z" fill="#231F20"/>
<path d="M219.12 96.5292C220.021 91.8072 217.852 87.4261 214.276 86.7439C210.699 86.0616 207.07 89.3365 206.169 94.0585C205.268 98.7805 207.437 103.161 211.013 103.844C214.59 104.526 218.219 101.251 219.12 96.5292Z" fill="white"/>
<path d="M211.969 104.448C211.649 104.448 211.265 104.448 210.945 104.384C207.169 103.68 204.801 99.0078 205.761 94.0798C206.145 91.7758 207.297 89.7278 208.961 88.1278C210.369 86.7198 212.417 86.0798 214.401 86.3998C218.177 87.1038 220.545 91.7758 219.585 96.7038C218.689 101.184 215.425 104.448 211.969 104.448ZM213.377 87.1038C211.969 87.1678 210.625 87.7438 209.601 88.7038C208.065 90.1758 207.041 92.0958 206.721 94.1438C205.889 98.6238 207.873 102.784 211.201 103.424C214.529 104.064 217.921 100.928 218.753 96.4478C219.585 91.9678 217.601 87.8078 214.273 87.1678C213.953 87.1038 213.633 87.1038 213.377 87.1038Z" fill="#231F20"/>
<path d="M200.001 108.992C199.745 108.992 199.553 108.8 199.553 108.544C199.553 108.288 199.745 108.096 200.001 108.096C203.201 107.904 208.577 107.264 209.537 106.112C210.625 104.832 211.329 100.608 211.521 99.1357C211.521 98.8797 211.777 98.6877 212.033 98.7517C212.289 98.7517 212.481 99.0077 212.417 99.2637C212.417 99.5197 211.713 104.96 210.241 106.688C208.769 108.416 200.961 108.928 200.001 108.992Z" fill="#231F20"/>
<path d="M203.502 107.378L203.51 107.377L203.518 107.376C203.626 107.363 203.706 107.394 203.769 107.451C203.837 107.512 203.899 107.619 203.919 107.767L203.982 108.461L203.983 108.47L203.984 108.478C203.998 108.586 203.966 108.666 203.91 108.729C203.848 108.796 203.741 108.859 203.594 108.879L197.971 109.39L197.963 109.391L197.954 109.392C197.846 109.405 197.767 109.374 197.704 109.317C197.636 109.256 197.573 109.149 197.553 109.001L197.49 108.307L197.489 108.294L197.487 108.281C197.471 108.166 197.591 107.929 197.879 107.889L203.502 107.378Z" fill="#231F20" stroke="white"/>
<path d="M198.273 110.336C197.889 110.336 197.505 110.208 197.185 109.952C196.865 109.696 196.609 109.248 196.609 108.8C196.545 107.84 197.185 107.072 198.145 106.944L203.073 106.496C204.033 106.432 204.801 107.072 204.929 108.032C204.993 108.48 204.801 108.928 204.545 109.248C204.289 109.568 203.841 109.824 203.393 109.824L198.465 110.272L198.273 110.336ZM203.137 107.392H203.073L198.145 107.84C197.697 107.904 197.377 108.288 197.441 108.736C197.505 109.184 197.889 109.504 198.337 109.44L203.265 108.992C203.457 108.992 203.649 108.864 203.777 108.736C203.905 108.544 203.969 108.352 203.969 108.16C203.969 107.968 203.841 107.776 203.713 107.584C203.521 107.456 203.329 107.392 203.137 107.392Z" fill="#231F20"/>
<path d="M86.2727 72.7036C71.8087 72.7036 60.0967 81.4076 60.0967 92.1596C60.0967 98.4956 64.1927 104.128 70.4647 107.648L76.3527 115.968V110.144C79.5527 111.104 82.9447 111.616 86.3367 111.616C100.801 111.616 112.513 102.912 112.513 92.1596C112.513 81.4076 100.737 72.7036 86.2727 72.7036Z" fill="white"/>
<path d="M76.3524 116.416C76.2244 116.416 76.0964 116.352 75.9684 116.224L70.1444 108.032C63.4884 104.256 59.6484 98.4959 59.6484 92.1599C59.6484 81.1519 71.6164 72.2559 86.2724 72.2559C100.928 72.2559 112.896 81.2159 112.896 92.1599C112.896 103.104 100.928 112.064 86.2724 112.064C83.0724 112.064 79.8724 111.68 76.7364 110.784V115.968C76.7364 116.16 76.6084 116.352 76.4164 116.416H76.3524ZM86.2724 73.1519C72.0644 73.1519 60.5444 81.6639 60.5444 92.1599C60.5444 98.1119 64.2564 103.616 70.7204 107.264C70.7844 107.328 70.8484 107.328 70.8484 107.392L75.9044 114.56V110.144C75.9044 110.016 75.9684 109.888 76.0964 109.76C76.2244 109.696 76.3524 109.632 76.4804 109.696C79.6804 110.656 83.0084 111.168 86.3364 111.104C100.544 111.104 112.064 102.592 112.064 92.0959C112.064 81.5999 100.48 73.1519 86.2724 73.1519Z" fill="#231F20"/>
<path d="M73.7283 94.336C74.9654 94.336 75.9683 93.3331 75.9683 92.096C75.9683 90.8588 74.9654 89.856 73.7283 89.856C72.4912 89.856 71.4883 90.8588 71.4883 92.096C71.4883 93.3331 72.4912 94.336 73.7283 94.336Z" fill="#231F20"/>
<path d="M86.2722 94.336C87.5093 94.336 88.5122 93.3331 88.5122 92.096C88.5122 90.8588 87.5093 89.856 86.2722 89.856C85.0351 89.856 84.0322 90.8588 84.0322 92.096C84.0322 93.3331 85.0351 94.336 86.2722 94.336Z" fill="#231F20"/>
<path d="M98.8806 94.336C100.118 94.336 101.121 93.3331 101.121 92.096C101.121 90.8588 100.118 89.856 98.8806 89.856C97.6435 89.856 96.6406 90.8588 96.6406 92.096C96.6406 93.3331 97.6435 94.336 98.8806 94.336Z" fill="#231F20"/>
<path d="M206.273 212.096C214.402 212.096 220.993 210.119 220.993 207.68C220.993 205.241 214.402 203.264 206.273 203.264C198.143 203.264 191.553 205.241 191.553 207.68C191.553 210.119 198.143 212.096 206.273 212.096Z" fill="white"/>
<path d="M206.272 212.544C198.912 212.544 191.04 210.816 191.04 207.616C191.04 204.416 198.848 202.752 206.272 202.752C213.696 202.752 221.44 204.48 221.44 207.616C221.44 210.752 213.632 212.544 206.272 212.544ZM206.272 203.712C197.888 203.712 192 205.824 192 207.68C192 209.536 197.888 211.648 206.272 211.648C214.656 211.648 220.544 209.536 220.544 207.68C220.544 205.824 214.656 203.712 206.272 203.712Z" fill="#231F20"/>
<path d="M195.136 195.584L194.752 195.648C193.664 195.776 192.704 196.352 192.064 197.184C191.296 198.4 191.232 199.936 192 201.152C193.536 203.968 197.376 204.736 200.32 204.992C200.704 205.056 201.152 204.992 201.536 204.928C202.048 204.8 202.304 204.288 202.176 203.84C202.112 203.584 201.92 203.328 201.664 203.2C201.344 203.072 201.024 202.944 200.704 202.944C198.848 202.624 196.928 202.432 195.264 201.6C194.304 201.088 192.96 200 193.664 198.784C193.92 198.4 194.304 198.08 194.688 197.888C196.352 197.12 197.952 197.696 199.616 198.208C199.744 198.272 199.872 198.272 200 198.272C200.32 198.208 200.576 197.888 200.512 197.504C200.448 196.8 199.744 196.288 199.04 196.032C197.76 195.52 196.416 195.392 195.136 195.584Z" fill="white"/>
<path d="M200.768 205.568C200.576 205.568 200.384 205.568 200.256 205.568C195.712 205.12 192.896 203.776 191.616 201.472C190.784 200.064 190.848 198.336 191.744 196.992C192.512 196.096 193.6 195.456 194.752 195.264L195.136 195.2C196.48 195.008 197.888 195.136 199.232 195.648C200.32 196.032 200.896 196.736 200.96 197.504C201.024 198.08 200.64 198.592 200.064 198.72C199.872 198.72 199.68 198.72 199.488 198.656L199.04 198.528C197.632 198.08 196.224 197.696 194.88 198.336C194.56 198.464 194.24 198.72 194.048 199.04C193.92 199.232 193.856 199.488 193.92 199.744C194.24 200.384 194.752 200.96 195.456 201.216C196.928 201.856 198.464 202.24 200.064 202.432L200.704 202.56C201.088 202.624 201.472 202.688 201.856 202.88C202.304 203.136 202.624 203.52 202.688 204.032C202.688 204.672 202.304 205.248 201.728 205.44C201.408 205.504 201.088 205.568 200.768 205.568ZM195.2 196.032L194.88 196.096C193.92 196.224 193.088 196.736 192.448 197.44C191.744 198.528 191.744 199.872 192.384 200.96C193.536 203.008 196.096 204.224 200.32 204.608C200.64 204.672 201.024 204.672 201.344 204.544C201.536 204.48 201.728 204.288 201.728 204.032C201.664 203.84 201.536 203.712 201.408 203.648C201.152 203.52 200.832 203.456 200.576 203.392L199.936 203.264C198.272 203.072 196.608 202.688 195.072 201.984C194.688 201.792 193.408 201.088 193.088 199.936C192.96 199.424 193.024 198.912 193.28 198.528C193.6 198.08 193.984 197.696 194.496 197.504C196.16 196.672 197.76 197.184 199.296 197.632L199.744 197.76C199.808 197.76 199.872 197.824 199.936 197.824C200 197.76 200 197.696 200 197.568C199.936 196.992 199.168 196.608 198.848 196.48C197.632 196.032 196.416 195.904 195.2 196.032Z" fill="#231F20"/>
<path d="M196.48 192.576C196.48 192.576 199.232 206.336 199.488 207.168C199.744 208 207.04 210.112 211.392 208.064L215.936 193.984L196.48 192.576Z" fill="white"/>
<path d="M206.849 209.408C204.545 209.408 202.241 208.96 200.065 208.128C199.489 207.872 199.169 207.616 199.105 207.296C198.849 206.464 196.225 193.216 196.097 192.64C196.097 192.512 196.097 192.32 196.225 192.256C196.289 192.128 196.481 192.064 196.609 192.128L216.065 193.536C216.193 193.536 216.321 193.6 216.385 193.728C216.449 193.856 216.513 193.984 216.449 194.112L211.905 208.192C211.841 208.32 211.777 208.448 211.649 208.448C210.113 209.152 208.449 209.472 206.849 209.408ZM197.121 193.088C198.081 197.952 199.809 206.464 200.001 207.04C200.449 207.616 206.913 209.536 211.137 207.744L215.425 194.432L197.121 193.088Z" fill="#231F20"/>
<path d="M206.411 189.253C209.044 189.361 211.384 189.922 213.037 190.722C213.864 191.122 214.496 191.571 214.91 192.033C215.322 192.492 215.496 192.936 215.479 193.353C215.462 193.769 215.252 194.197 214.804 194.621C214.354 195.047 213.686 195.443 212.829 195.774C211.117 196.436 208.738 196.803 206.106 196.695C203.474 196.587 201.133 196.026 199.481 195.226C198.654 194.826 198.021 194.377 197.607 193.916C197.195 193.456 197.021 193.012 197.038 192.596C197.055 192.18 197.265 191.751 197.713 191.327C198.164 190.901 198.831 190.505 199.688 190.174C201.401 189.513 203.779 189.145 206.411 189.253Z" fill="#231F20" stroke="white"/>
<path d="M207.04 197.696H206.08C203.648 197.632 201.28 197.12 199.04 196.096C197.056 195.136 195.968 193.92 196.032 192.576C196.096 191.232 197.248 190.08 199.296 189.312C203.904 187.776 208.96 188.032 213.44 189.888C215.424 190.848 216.512 192.064 216.448 193.408C216.384 195.84 212.288 197.696 207.04 197.696ZM205.504 189.184C203.52 189.12 201.536 189.44 199.68 190.144C198.016 190.784 197.056 191.68 196.992 192.64C196.928 193.6 197.888 194.56 199.488 195.328C201.6 196.224 203.84 196.736 206.144 196.8C211.712 197.056 215.552 195.2 215.616 193.408C215.68 192.512 214.72 191.488 213.12 190.72C211.008 189.824 208.768 189.312 206.464 189.248L205.504 189.184Z" fill="#231F20"/>
</svg>
