<svg width="304" height="286" viewBox="0 0 304 286" fill="none" xmlns="http://www.w3.org/2000/svg">
<path d="M19.0303 163.763C18.7871 163.763 18.5439 163.58 18.5439 163.275C18.5439 162.969 18.7263 162.786 19.0303 162.786L46.6943 161.26C46.9375 161.26 47.1807 161.443 47.1807 161.687C47.1807 161.931 46.9983 162.176 46.7551 162.176L19.0303 163.763Z" fill="white"/>
<path d="M85.3636 249.125C85.3028 249.125 85.1812 249.125 85.1204 249.064C84.938 248.942 84.8772 248.637 84.9988 248.454L98.5572 227.266C98.6788 227.083 98.9828 227.021 99.1652 227.144C99.3476 227.266 99.4084 227.571 99.2868 227.754L85.7284 248.942C85.6676 249.064 85.546 249.125 85.3636 249.125Z" fill="white"/>
<path d="M34.1092 214.809C33.866 214.809 33.6836 214.626 33.6836 214.321C33.6836 214.138 33.7444 214.016 33.9268 213.954L54.538 202.353C54.7812 202.231 55.0244 202.292 55.146 202.536C55.2676 202.78 55.2068 203.025 54.9636 203.147L34.3524 214.748C34.2308 214.748 34.17 214.809 34.1092 214.809Z" fill="white"/>
<path d="M186.96 53.7329C186.899 53.7329 186.838 53.7329 186.778 53.7329C186.534 53.6719 186.413 53.3666 186.474 53.1223L191.52 39.5059C191.581 39.2617 191.885 39.1396 192.128 39.2006C192.371 39.2617 192.493 39.567 192.432 39.8112L187.386 53.4276C187.325 53.6108 187.142 53.7329 186.96 53.7329Z" fill="white"/>
<path d="M262.899 136.042C262.656 136.042 262.474 135.859 262.474 135.553C262.474 135.309 262.656 135.126 262.838 135.126L284.422 131.584C284.666 131.523 284.909 131.707 284.97 132.012C285.03 132.256 284.848 132.5 284.605 132.561L263.021 136.103L262.899 136.042Z" fill="white"/>
<path d="M262.352 225.923C262.23 225.923 262.108 225.861 261.987 225.739L248.428 208.581C248.246 208.398 248.307 208.093 248.489 207.971C248.672 207.849 248.915 207.849 249.097 208.032L262.656 225.19C262.838 225.373 262.777 225.678 262.595 225.861C262.534 225.861 262.412 225.923 262.352 225.923Z" fill="white"/>
<path d="M51.0115 80.1109C50.8899 80.1109 50.7683 80.0498 50.7075 79.9887L40.9795 71.6235C40.7971 71.4403 40.7363 71.1961 40.9187 70.9518C41.1011 70.7687 41.3443 70.7687 41.5267 70.8908L51.2547 79.256C51.4371 79.4392 51.4979 79.6834 51.3155 79.9277C51.2547 80.0498 51.1331 80.1109 51.0115 80.1109Z" fill="white"/>
<path d="M195.654 63.4414C195.654 63.4414 193.769 70.6465 187.75 70.7686C187.75 70.7686 194.073 72.5394 195.411 78.5233C195.411 78.5233 197.113 73.0889 202.768 71.6235C202.768 71.6845 197.66 69.9138 195.654 63.4414Z" fill="white"/>
<path d="M23.1035 117.968C23.1035 117.968 27.9067 124.868 23.6507 130.18C23.6507 130.18 29.7915 125.967 35.9323 129.203C35.9323 129.203 32.4667 123.769 35.3243 117.785C35.3243 117.785 30.1563 120.96 23.1035 117.968Z" fill="white"/>
<path d="M66.0893 61.793C66.0893 61.793 67.1229 73.8218 58.0029 77.3022C58.0029 77.3022 68.6429 76.5695 73.8717 84.9348C73.8717 84.9348 73.5069 75.7147 81.2893 70.4024C81.3501 70.4024 72.6557 70.5856 66.0893 61.793Z" fill="white"/>
<path d="M208.5 91.4998C209.7 93.0998 211.667 93.8331 212.5 93.9998C219.334 95.1664 233.6 97.4998 236 97.4998C239 97.4998 243 94.4998 244.5 93.4998C246 92.4998 248 87.4998 248.5 86.4998C253.5 62.9998 234.5 65.9998 234 65.9998C233.5 65.9997 233 66.4998 230.5 65.9998C225 65.4998 218 65.9998 212 72.4998C206 78.9998 207 89.4998 208.5 91.4998Z" fill="white"/>
<path d="M253.5 64.4998C250.3 63.6998 247.167 64.8331 246 65.4998C245.5 72.1664 244.8 87.6998 246 96.4998C247.2 105.3 254.5 108.166 258 108.5L256.5 105.5C254 102 262.5 89.9998 265.5 84.9998C267.5 75.4998 264.5 73.4998 263.5 70.9998C262.5 68.4998 257.5 65.4998 253.5 64.4998Z" fill="white"/>
<path d="M225.811 271.412L226.845 241.737L204.714 238.378L203.376 271.717" fill="white"/>
<path d="M203.377 272.206C203.134 272.206 202.951 271.962 202.951 271.717L204.289 238.379C204.289 238.134 204.532 237.951 204.775 237.951C204.775 237.951 204.775 237.951 204.836 237.951L226.967 241.309C227.21 241.371 227.332 241.554 227.332 241.798L226.359 271.412C226.359 271.656 226.177 271.84 225.934 271.84C225.934 271.84 225.934 271.84 225.873 271.84C225.63 271.84 225.447 271.595 225.447 271.351L226.42 242.164L205.201 238.928L203.863 271.717C203.863 271.962 203.62 272.145 203.377 272.206Z" fill="#231F20"/>
<path d="M117.892 258.589L143.184 228.487L165.863 234.043L136.983 263.657" fill="white"/>
<path d="M136.983 264.085C136.862 264.085 136.74 264.024 136.679 263.963C136.497 263.78 136.497 263.475 136.679 263.291L164.951 234.227L143.367 228.914L118.257 258.834C118.074 259.017 117.77 259.017 117.588 258.895C117.406 258.712 117.406 258.407 117.527 258.223L142.881 228.121C143.002 227.999 143.185 227.938 143.367 227.999L165.985 233.555C166.228 233.616 166.35 233.86 166.289 234.105C166.289 234.166 166.228 234.227 166.167 234.288L137.348 263.902C137.226 264.024 137.105 264.085 136.983 264.085Z" fill="#231F20"/>
<path d="M243.739 167.373C243.633 167.686 243.545 167.941 243.479 168.132L194.678 158.282C194.677 158.259 194.676 158.235 194.675 158.21C194.663 157.907 194.645 157.463 194.625 156.896C194.585 155.762 194.536 154.137 194.498 152.175C194.422 148.249 194.392 142.977 194.574 137.585C194.756 132.189 195.15 126.691 195.919 122.306C196.304 120.112 196.78 118.217 197.36 116.759C197.949 115.281 198.61 114.345 199.309 113.944L199.309 113.944C202.61 112.046 206.98 110.364 210.545 109.153C212.323 108.548 213.894 108.064 215.019 107.73C215.582 107.564 216.033 107.435 216.344 107.348C216.499 107.304 216.618 107.271 216.699 107.249L216.791 107.224L216.814 107.218L216.815 107.217C230.563 103.919 239.203 106.605 244.487 111.503C249.797 116.427 251.825 123.683 252.125 129.716C252.425 135.73 250.245 145.409 247.963 153.646C246.825 157.751 245.668 161.477 244.796 164.176C244.36 165.525 243.995 166.618 243.739 167.373Z" fill="white" stroke="black"/>
<path d="M191.946 138.545C191.885 138.545 191.824 138.545 191.764 138.545C191.52 138.423 191.399 138.179 191.52 137.935C194.804 129.936 199.668 117.724 199.789 116.869C199.789 116.625 199.972 116.441 200.215 116.441C200.458 116.441 200.701 116.686 200.701 116.93C200.701 117.663 194.864 132.134 192.372 138.301C192.311 138.423 192.128 138.545 191.946 138.545Z" fill="white"/>
<path d="M219.671 101.665L216.145 112.228C216.145 112.228 216.084 118.517 223.015 117.968C227.149 117.602 230.919 115.403 233.29 111.923L236.209 92.9943C235.175 92.0784 234.445 90.7961 234.324 89.3918C234.202 88.3537 234.202 87.2546 234.385 86.2166C234.689 84.8122 235.236 83.4689 235.905 82.1867C232.561 81.515 229.642 80.1717 227.332 77.5461C226.785 76.8744 226.298 76.2028 225.812 75.47C225.569 75.1647 221.191 77.2408 220.705 77.424C218.577 78.5231 216.449 80.0496 215.172 82.1256C214.138 83.8963 213.773 85.9113 213.409 87.8652C212.922 90.613 212.618 93.4217 212.618 96.1694C212.801 101.604 219.671 101.665 219.671 101.665Z" fill="white"/>
<path d="M222.163 118.457C220.522 118.518 218.88 117.968 217.603 116.869C216.387 115.648 215.719 113.938 215.658 112.228C215.658 112.167 215.658 112.106 215.658 112.106L219.002 102.092C217.239 101.909 212.314 100.993 212.253 96.2917C212.253 93.4829 212.496 90.6741 213.043 87.8654C213.347 85.9725 213.712 83.8354 214.867 81.9426C216.023 80.0497 217.968 78.34 220.583 77.0577C225.751 74.4932 226.055 74.9817 226.237 75.2259C226.663 75.8976 227.149 76.5693 227.696 77.2409C229.763 79.5612 232.378 80.9656 236.026 81.6983C236.269 81.7594 236.451 82.0036 236.391 82.2479C236.391 82.3089 236.391 82.3089 236.33 82.37C235.661 83.5912 235.175 84.8734 234.81 86.2778C234.627 87.2548 234.567 88.2928 234.749 89.2698C234.871 90.552 235.479 91.7732 236.451 92.6281C236.573 92.7502 236.634 92.8723 236.634 93.0555L233.715 111.984C233.715 112.045 233.715 112.106 233.655 112.167C231.283 115.77 227.392 118.09 223.075 118.518C222.771 118.457 222.467 118.457 222.163 118.457ZM216.631 112.289C216.691 113.755 217.239 115.159 218.272 116.197C219.367 117.235 220.947 117.663 223.015 117.48C226.967 117.113 230.615 115.037 232.864 111.74L235.722 93.1776C234.688 92.2007 234.019 90.8573 233.898 89.453C233.715 88.3539 233.776 87.2548 233.959 86.1557C234.263 84.9345 234.688 83.7133 235.296 82.5532C231.77 81.7594 229.095 80.2329 227.027 77.9126C226.541 77.302 226.055 76.6303 225.629 76.0197C224.048 76.5693 222.528 77.2409 221.008 77.9736C219.306 78.8285 216.995 80.2939 215.658 82.4921C214.624 84.2018 214.32 86.2168 213.955 88.1096C213.469 90.8573 213.165 93.605 213.165 96.3527C213.226 101.176 219.367 101.299 219.671 101.299C219.914 101.299 220.096 101.482 220.096 101.787C220.096 101.848 220.096 101.909 220.096 101.909L216.631 112.289Z" fill="#231F20"/>
<path d="M232.56 91.2845C232.864 90.4907 233.472 89.8801 234.141 89.4527C234.81 89.0863 235.6 88.8421 236.33 88.781C236.755 88.6589 237.181 88.6589 237.607 88.781C237.911 88.9032 238.154 89.0253 238.397 89.2085C238.944 89.6359 239.37 90.1854 239.552 90.8571C239.613 91.4066 239.552 92.0172 239.37 92.5668C239.187 93.1774 238.944 93.7269 238.64 94.2765C237.303 96.4746 234.384 97.1463 232.256 95.7419C232.256 95.7419 232.195 95.7419 232.195 95.6808" fill="white"/>
<path d="M234.689 96.9022C233.716 96.9022 232.743 96.5969 231.892 96.0474C231.709 95.9253 231.649 95.62 231.77 95.4368C231.892 95.2536 232.196 95.1925 232.378 95.3147C234.324 96.5969 236.938 96.0474 238.215 94.0935C238.215 94.0935 238.215 94.0324 238.276 94.0324C238.58 93.5439 238.823 92.9944 238.945 92.4448C239.127 91.9563 239.188 91.4679 239.127 90.9794C238.945 90.4298 238.641 89.8803 238.154 89.575C237.972 89.3918 237.789 89.3308 237.546 89.2086C237.181 89.1476 236.817 89.1476 236.513 89.2697C235.783 89.3918 235.114 89.575 234.445 89.9414C233.837 90.3077 233.29 90.8573 233.047 91.5289C232.925 91.7732 232.682 91.8953 232.439 91.7732C232.196 91.651 232.074 91.4068 232.196 91.1626C232.561 90.3077 233.229 89.575 234.02 89.0865C234.749 88.7202 235.54 88.4149 236.391 88.3538C236.877 88.2317 237.364 88.2317 237.85 88.3538C238.215 88.4759 238.519 88.6591 238.762 88.8423C239.431 89.3308 239.917 90.0024 240.1 90.7962C240.161 91.4068 240.1 92.0785 239.917 92.6891C239.735 93.3607 239.492 93.9713 239.127 94.5209C238.093 95.9863 236.452 96.9022 234.689 96.9022Z" fill="#231F20"/>
<path d="M217.907 107.282C220.461 107.527 223.014 106.855 225.142 105.45C228.547 103.069 228.73 100.016 228.73 100.016C225.872 101.298 222.832 101.848 219.731 101.726L217.907 107.282Z" fill="#231F20"/>
<path d="M218.941 107.771C218.576 107.771 218.211 107.771 217.846 107.71C217.725 107.71 217.603 107.588 217.542 107.527C217.481 107.404 217.481 107.282 217.481 107.16L219.245 101.604C219.305 101.421 219.488 101.298 219.731 101.298C222.771 101.421 225.75 100.871 228.486 99.6498C228.608 99.5887 228.79 99.5887 228.973 99.6498C229.094 99.7109 229.216 99.894 229.155 100.077C229.155 100.199 228.912 103.374 225.385 105.817C223.501 107.099 221.251 107.771 218.941 107.771ZM218.515 106.855C220.765 106.977 223.014 106.305 224.899 105.084C226.419 104.107 227.574 102.581 228.121 100.81C225.568 101.787 222.832 102.275 220.035 102.214L218.515 106.855Z" fill="#231F20"/>
<path d="M224.352 83.5913C224.352 83.5913 219.853 88.1098 220.522 89.2088C221.191 90.3079 223.623 90.1247 223.623 90.1247" fill="white"/>
<path d="M223.258 90.552C222.467 90.552 220.765 90.4299 220.096 89.3919C219.367 88.1707 222.224 84.9955 223.987 83.2248C224.17 83.0416 224.474 83.0416 224.656 83.2248C224.839 83.408 224.839 83.7133 224.656 83.8354C222.528 86.0336 220.704 88.3538 220.887 88.9034C221.251 89.514 222.711 89.6361 223.562 89.575C223.805 89.575 224.048 89.7582 224.048 90.0025C224.048 90.2467 223.866 90.4909 223.623 90.4909L223.258 90.552Z" fill="#231F20"/>
<path d="M217.481 92.689L226.176 92.5669C226.176 92.5669 225.811 98.4897 220.704 98.795C215.597 99.1003 217.481 92.689 217.481 92.689Z" fill="#231F20"/>
<path d="M226.42 83.5913C226.663 83.1028 227.15 82.7364 227.697 82.6754C228.67 82.4922 229.217 83.6523 229.217 83.6523" fill="white"/>
<path d="M229.155 84.1406C228.973 84.1406 228.79 84.0185 228.73 83.8964C228.73 83.8964 228.365 83.0415 227.696 83.1637C227.331 83.2247 226.966 83.4079 226.784 83.7743C226.723 84.0185 226.419 84.1406 226.176 84.0796C225.933 84.0185 225.811 83.7743 225.872 83.53C226.176 82.8584 226.784 82.3699 227.514 82.3088C228.365 82.2478 229.216 82.7362 229.52 83.5911C229.642 83.8353 229.52 84.0796 229.277 84.2017C229.277 84.0796 229.216 84.1406 229.155 84.1406Z" fill="#231F20"/>
<path d="M218.333 82.7973C218.576 82.3089 219.063 81.9425 219.61 81.8814C220.583 81.6983 221.13 82.8584 221.13 82.8584" fill="white"/>
<path d="M221.13 83.3467C220.947 83.3467 220.765 83.2246 220.704 83.1025C220.704 83.1025 220.339 82.2476 219.671 82.3697C219.306 82.4308 218.941 82.614 218.759 82.9803C218.698 83.2246 218.394 83.3467 218.151 83.2856C217.907 83.2246 217.786 82.9803 217.847 82.7361C218.151 82.0644 218.759 81.5759 219.427 81.5149C220.279 81.4538 221.13 81.9423 221.434 82.7972C221.555 83.0414 221.434 83.2856 221.191 83.4078C221.251 83.3467 221.191 83.3467 221.13 83.3467Z" fill="#231F20"/>
<path d="M242.836 168.098L235.722 263.291L117.588 239.05L196.081 158.146L242.836 168.098Z" fill="#231F20"/>
<path d="M191.946 98.2455L53.2002 121.448L114.243 59.167L191.946 98.2455Z" fill="#231F20"/>
<path d="M53.1999 121.937C53.0175 121.937 52.8959 121.815 52.7743 121.693C52.6527 121.51 52.7135 121.327 52.8351 121.143L113.878 58.862C114 58.7399 114.243 58.6788 114.425 58.8009L192.128 97.8794C192.31 97.9405 192.432 98.1847 192.371 98.3679C192.371 98.5511 192.189 98.7343 192.006 98.7343L53.2607 121.937H53.1999ZM114.365 59.7168L54.5375 120.777L190.547 98.0015L114.365 59.7168Z" fill="#231F20"/>
<path d="M204.775 191.729L73.8724 215.359L53.3828 122.303L192.068 99.0396L204.775 191.729Z" fill="#231F20"/>
<path d="M73.8722 215.786C73.629 215.786 73.4466 215.664 73.4466 215.42L52.957 122.364C52.957 122.242 52.957 122.12 53.0178 121.998C53.0786 121.876 53.2002 121.815 53.3218 121.815L192.007 98.6118C192.128 98.6118 192.25 98.6118 192.371 98.6729C192.493 98.7339 192.554 98.8561 192.554 98.9782L205.261 191.606C205.322 191.851 205.139 192.095 204.896 192.095L73.9938 215.725L73.8722 215.786ZM53.9298 122.67L74.237 214.87L204.288 191.362L191.703 99.5888L53.9298 122.67Z" fill="#231F20"/>
<path d="M85.2197 183.959C85.1809 183.839 85.1339 183.694 85.0788 183.524C84.899 182.971 84.634 182.157 84.2926 181.112C83.6099 179.024 82.6216 176.015 81.3996 172.333C78.9558 164.97 75.5768 154.916 71.8366 144.151C64.4792 122.976 55.7087 99.006 49.9091 87.3925L177.931 52.3611L185.883 166.948L85.2197 183.959Z" fill="#231F20" stroke="black"/>
<path d="M71.8048 100.199C71.5616 100.199 71.3184 100.016 71.3184 99.7719C71.3184 99.5277 71.44 99.3445 71.6832 99.3445L166.714 74.6152C166.957 74.5541 167.2 74.6762 167.261 74.9205C167.322 75.1647 167.2 75.409 166.957 75.47L71.9264 100.199C71.8656 100.199 71.8656 100.199 71.8048 100.199Z" fill="white"/>
<path d="M75.8182 115.831C75.575 115.831 75.3926 115.709 75.3926 115.464C75.3318 115.22 75.5142 114.976 75.7574 114.915L167.748 94.2154C167.991 94.1544 168.234 94.3376 168.295 94.5818C168.356 94.826 168.173 95.0703 167.93 95.1313L75.9398 115.831H75.8182Z" fill="white"/>
<path d="M83.7218 130.486C83.4786 130.486 83.2354 130.302 83.2354 130.058C83.2354 129.814 83.4178 129.631 83.6002 129.57L171.578 112.412C171.821 112.351 172.064 112.534 172.125 112.778C172.186 113.022 172.003 113.206 171.76 113.267L83.7826 130.424L83.7218 130.486Z" fill="white"/>
<path d="M87.9169 149.17C87.6737 149.17 87.4913 148.986 87.4913 148.803C87.4305 148.559 87.6129 148.315 87.8561 148.254L171.334 134.637C171.578 134.576 171.821 134.759 171.882 135.004C171.942 135.248 171.76 135.492 171.517 135.553L88.0385 149.17H87.9169Z" fill="white"/>
<path d="M131.876 158.268L53.3828 122.303L73.8724 215.359L204.775 191.729L192.068 99.0396L131.876 158.268Z" fill="white"/>
<path d="M73.8723 215.786C73.6291 215.786 73.4467 215.664 73.4467 215.42L52.9571 122.364C52.8963 122.12 53.0787 121.876 53.3219 121.815C53.3827 121.815 53.5043 121.815 53.5651 121.815L131.754 157.718L191.703 98.7341C191.885 98.5509 192.189 98.5509 192.311 98.7341C192.372 98.7951 192.432 98.9173 192.432 98.9783L205.14 191.607C205.2 191.851 205.018 192.095 204.775 192.095L73.9331 215.725L73.8723 215.786ZM54.0515 123.097L74.2371 214.87L204.288 191.362L191.764 100.016L132.24 158.573C132.119 158.695 131.876 158.756 131.754 158.634L54.0515 123.097Z" fill="#231F20"/>
<path d="M204.774 191.729L73.9326 215.359L131.875 158.268L204.774 191.729Z" fill="white"/>
<path d="M73.9334 215.787C73.6902 215.787 73.5078 215.603 73.5078 215.298C73.5078 215.176 73.5686 215.054 73.6294 214.993L131.633 157.902C131.754 157.779 131.997 157.718 132.119 157.84L205.018 191.24C205.261 191.363 205.322 191.607 205.261 191.851C205.201 191.973 205.079 192.095 204.957 192.095L74.055 215.725L73.9334 215.787ZM131.997 158.817L75.271 214.626L203.255 191.485L131.997 158.817Z" fill="#231F20"/>
<path d="M204.774 191.729L73.9326 215.359L131.875 158.268L204.774 191.729Z" fill="white"/>
<path d="M73.9334 215.787C73.6902 215.787 73.5078 215.603 73.5078 215.298C73.5078 215.176 73.5686 215.054 73.6294 214.993L131.633 157.902C131.754 157.779 131.997 157.718 132.119 157.84L205.018 191.24C205.261 191.363 205.322 191.607 205.261 191.851C205.201 191.973 205.079 192.095 204.957 192.095L74.055 215.725L73.9334 215.787ZM131.997 158.817L75.271 214.626L203.255 191.485L131.997 158.817Z" fill="#231F20"/>
<path d="M237.971 122.181C237.971 122.181 168.598 157.535 158.019 159.55C147.44 161.565 134.915 158.023 135.401 161.076C135.888 164.129 141.968 165.595 141.968 165.595C141.968 165.595 122.877 168.648 123.849 170.663C124.822 172.678 137.408 170.174 137.408 170.174C137.408 170.174 121.843 174.693 125.309 176.769C128.774 178.845 139.901 174.265 139.901 174.265C139.901 174.265 123.302 182.814 127.862 183.363C132.422 183.913 140.448 179.333 140.448 179.333C140.448 179.333 127.862 185.928 132.909 186.416C137.955 186.905 212.861 160.161 237.971 145.018" fill="white"/>
<path d="M133.03 186.783H132.848C131.875 186.661 131.389 186.355 131.267 185.806C131.146 185.012 132.24 183.913 133.76 182.753C131.693 183.424 129.565 183.913 127.802 183.73C127.133 183.669 126.707 183.363 126.646 182.936C126.403 181.593 130.781 178.784 134.794 176.464C131.328 177.441 127.133 178.295 125.126 177.135C124.64 176.952 124.336 176.464 124.397 175.914C124.579 174.51 128.166 172.861 131.632 171.579C127.984 172.006 124.093 172.189 123.485 170.846C123.363 170.602 123.363 170.297 123.485 170.113C124.397 168.282 135.158 166.328 140.022 165.473C138.138 164.74 135.341 163.336 134.976 161.137C134.915 160.771 135.037 160.344 135.28 160.099C136.131 159.123 138.928 159.245 143.062 159.489C147.44 159.733 152.912 160.038 157.958 159.123C168.355 157.169 237.059 122.12 237.789 121.815C238.032 121.693 238.275 121.815 238.397 121.998C238.518 122.242 238.397 122.486 238.214 122.609C235.357 124.074 168.659 158.023 158.141 160.038C152.973 161.015 147.44 160.71 143.002 160.466C139.658 160.283 136.557 160.099 135.949 160.771C135.888 160.832 135.888 160.954 135.888 161.076C136.253 163.336 140.509 164.862 142.09 165.229C142.333 165.29 142.515 165.534 142.454 165.778C142.394 165.961 142.272 166.083 142.09 166.144C133.942 167.427 124.944 169.503 124.336 170.602C124.944 171.518 130.72 171.151 137.408 169.808C137.651 169.747 137.894 169.869 137.955 170.113C138.016 170.358 137.894 170.602 137.651 170.663C131.875 172.373 125.552 174.876 125.37 176.097C125.37 176.219 125.552 176.341 125.674 176.403C128.41 177.99 136.861 175.12 139.84 173.838C140.083 173.716 140.326 173.838 140.448 174.082C140.57 174.326 140.448 174.571 140.205 174.693C134.246 177.746 127.802 181.715 127.619 182.814C127.741 182.875 127.862 182.875 127.984 182.875C131.389 183.241 136.922 180.616 139.232 179.456L140.266 178.906C140.509 178.784 140.752 178.906 140.874 179.089C140.995 179.333 140.934 179.578 140.691 179.7C140.63 179.761 140.205 180.005 139.536 180.31C135.037 182.753 131.997 185.134 132.179 185.684C132.179 185.684 132.301 185.867 132.97 185.928C135.158 186.111 153.642 180.249 177.779 171.151C190.73 166.267 222.406 153.871 237.789 144.59C238.032 144.468 238.275 144.529 238.397 144.773C238.518 145.018 238.458 145.262 238.214 145.384C213.955 159.916 140.083 186.783 133.03 186.783Z" fill="#231F20"/>
<path d="M225.416 151.463C225.345 151.293 225.254 151.078 225.146 150.822C224.855 150.133 224.441 149.147 223.948 147.962C222.96 145.593 221.654 142.432 220.378 139.259C219.102 136.086 217.858 132.906 216.995 130.5C216.563 129.295 216.23 128.294 216.036 127.588C215.946 127.262 215.891 127.016 215.866 126.848C215.93 126.813 215.998 126.774 216.068 126.734C216.276 126.613 216.551 126.448 216.88 126.247C217.539 125.845 218.428 125.293 219.469 124.646L219.64 124.539C221.7 123.258 224.327 121.624 226.974 120.03C229.697 118.39 232.432 116.797 234.584 115.677C235.662 115.116 236.581 114.681 237.273 114.416C237.621 114.284 237.894 114.201 238.091 114.164C238.184 114.147 238.247 114.142 238.285 114.143C238.294 114.151 238.304 114.162 238.317 114.176C238.358 114.22 238.408 114.284 238.467 114.37C238.587 114.544 238.728 114.786 238.886 115.095C239.203 115.713 239.572 116.561 239.968 117.582C240.759 119.622 241.643 122.319 242.414 125.166C243.186 128.015 243.841 131.003 244.179 133.627C244.521 136.278 244.526 138.471 244.066 139.785C243.618 141.066 242.267 142.466 240.365 143.867C238.484 145.252 236.15 146.577 233.863 147.731C231.578 148.884 229.354 149.86 227.699 150.548C226.873 150.891 226.189 151.163 225.713 151.348C225.603 151.391 225.503 151.429 225.416 151.463ZM238.314 114.145C238.314 114.145 238.314 114.145 238.313 114.145L238.314 114.145Z" fill="white" stroke="black"/>
<path d="M227.818 152.162C227.636 152.162 227.453 152.039 227.392 151.856C227.332 151.612 227.453 151.368 227.696 151.307C227.818 151.246 242.714 146.178 248.612 138.667C248.794 138.484 249.098 138.545 249.28 138.728C249.402 138.85 249.402 139.034 249.341 139.217C243.261 146.971 228.608 151.978 228 152.162C227.879 152.162 227.879 152.162 227.818 152.162Z" fill="#231F20"/>
<path d="M239.735 97.3297C239.492 97.3297 239.31 97.0855 239.31 96.8412C239.31 96.658 239.431 96.4749 239.614 96.4138C243.018 95.3758 245.754 92.8723 247.031 89.6361C248.369 86.3389 248.673 82.7363 247.943 79.2559C247.457 75.8976 245.998 72.7225 243.748 70.1579C241.316 67.5934 237.911 66.189 234.871 66.5554L234.202 66.6164C233.716 66.6775 233.23 66.7386 232.743 66.7386C232.135 66.7386 231.527 66.6165 230.919 66.4943L230.554 66.4333C220.218 64.3572 210.186 71.0738 208.119 81.4541C207.572 84.2018 207.633 87.0716 208.302 89.8193C208.545 90.6741 209.031 92.1396 210.126 92.2617C210.369 92.2617 210.551 92.4449 210.551 92.7502C210.551 93.0555 210.369 93.1776 210.065 93.1776C210.004 93.1776 210.004 93.1776 209.943 93.1776C208.727 93.0555 207.815 91.8953 207.329 90.0635C204.654 79.317 211.22 68.4483 221.921 65.7616C224.778 65.0289 227.758 64.9678 230.676 65.5784L231.041 65.6395C232.014 65.9448 233.047 65.9448 234.02 65.7616C234.263 65.7005 234.506 65.7005 234.689 65.6395C238.094 65.2731 241.742 66.7386 244.356 69.5473C246.727 72.234 248.247 75.5312 248.794 79.0727C249.524 82.7363 249.22 86.522 247.822 90.0025C246.241 93.6661 243.262 96.4138 239.796 97.3297H239.735Z" fill="#231F20"/>
<path d="M232.743 66.311C232.743 66.311 237.364 62.8306 244.903 64.7234C252.442 66.6163 255.3 80.3548 248.247 87.8042C248.247 87.8042 249.342 67.5933 232.743 66.311Z" fill="#231F20"/>
<path d="M259.555 109.603C255.603 109.236 252.198 107.954 249.706 105.878C246.787 103.436 245.085 99.8332 245.267 96.4138C245.267 96.1696 245.51 95.9864 245.754 95.9864C245.997 95.9864 246.179 96.2307 246.179 96.4749C245.997 99.589 247.578 102.947 250.314 105.145C252.502 106.855 255.117 108.015 257.853 108.443C257.123 107.588 256.637 106.55 256.454 105.39C256.333 103.68 256.576 101.97 257.245 100.383C258.339 97.6961 259.616 95.1316 261.136 92.6892C263.386 88.9035 265.453 85.3009 265.939 81.0878C266.851 72.9057 261.014 65.5174 252.867 64.6015C250.982 64.4183 249.158 64.5405 247.334 65.0289C247.091 65.09 246.848 64.9679 246.787 64.7236C246.726 64.4794 246.848 64.2352 247.091 64.1741C255.482 61.8538 264.115 66.8607 266.426 75.287C266.973 77.241 267.094 79.1949 266.851 81.2099C266.365 85.6062 264.115 89.453 261.926 93.1777C260.406 95.559 259.13 98.1235 258.096 100.749C257.488 102.153 257.245 103.741 257.366 105.268C257.488 106.733 258.4 108.076 259.738 108.687C259.981 108.809 260.102 109.053 259.981 109.298C259.92 109.481 259.738 109.603 259.555 109.603Z" fill="#231F20"/>
<path d="M218.637 130.241C218.394 130.241 218.15 130.058 218.15 129.813C218.15 129.63 218.211 129.508 218.394 129.447L236.755 118.09C236.938 117.968 237.242 118.029 237.363 118.212C237.485 118.395 237.424 118.701 237.242 118.823L218.88 130.18C218.819 130.18 218.698 130.241 218.637 130.241Z" fill="#231F20"/>
<path d="M221.92 183.974C221.859 183.974 221.798 183.974 221.677 183.913C221.494 183.791 221.373 183.547 221.494 183.303L231.222 165.473C231.344 165.29 231.526 165.168 231.769 165.229C231.952 165.29 232.134 165.473 232.134 165.656V181.471C232.134 181.715 231.952 181.959 231.648 181.959C231.344 181.959 231.161 181.776 231.161 181.471V167.427L222.285 183.669C222.224 183.913 222.102 183.974 221.92 183.974Z" fill="white"/>
</svg>
