<svg width="375" height="291" viewBox="0 0 375 291" fill="none" xmlns="http://www.w3.org/2000/svg">
<path d="M315.481 243.858H26.746C26.4543 243.858 26.2598 243.664 26.2598 243.373C26.2598 243.082 26.4543 242.888 26.746 242.888H315.481C315.773 242.888 315.967 243.082 315.967 243.373C315.967 243.664 315.773 243.858 315.481 243.858Z" fill="#D1D3D4"/>
<path d="M173.788 266.265H179.331L195.475 195.164H187.695L173.788 266.265Z" fill="white"/>
<path d="M179.331 266.653H173.885C173.787 266.653 173.593 266.556 173.496 266.459C173.398 266.362 173.398 266.265 173.398 266.071L187.305 194.97C187.305 194.776 187.5 194.582 187.694 194.582H195.474C195.571 194.582 195.766 194.679 195.863 194.776C195.96 194.873 195.96 195.067 195.96 195.164L179.817 266.265C179.817 266.556 179.622 266.75 179.331 266.653ZM174.371 265.78H178.942L194.891 195.552H188.083L174.371 265.78Z" fill="#231F20"/>
<path d="M176.219 147.149C176.219 147.149 133.721 162.087 128.664 170.041C123.607 177.995 121.078 249.872 121.078 249.872L144.029 252.297C144.029 252.297 150.253 186.822 153.462 183.912C156.672 181.002 211.715 150.641 211.715 150.641L176.219 147.149Z" fill="#231F20"/>
<path d="M144.127 252.782L121.078 250.357C120.884 250.357 120.689 250.163 120.689 249.872C120.787 246.962 123.218 177.801 128.372 169.75C133.526 161.699 174.371 147.246 176.122 146.664C176.219 146.664 176.219 146.664 176.316 146.664L211.813 150.156C212.007 150.156 212.104 150.35 212.202 150.544C212.202 150.738 212.202 150.932 212.007 151.029C211.424 151.32 156.964 181.39 153.852 184.3C151.615 186.337 147.044 226.204 144.516 252.394C144.516 252.491 144.418 252.588 144.418 252.685C144.224 252.782 144.224 252.782 144.127 252.782ZM121.565 249.581L143.738 251.909C144.516 243.47 150.059 186.531 153.268 183.621C156.283 180.905 202.088 155.491 210.451 150.932L176.414 147.634C174.274 148.41 134.013 162.766 129.15 170.332C124.288 177.898 121.759 243.761 121.565 249.581Z" fill="#231F20"/>
<path d="M222.705 182.554C221.635 182.554 167.953 183.136 167.953 183.136L193.335 240.172L170.87 249.29C170.87 249.29 135.86 185.076 139.848 175.473C143.835 165.87 199.462 148.507 199.462 148.507L226.984 155.394C226.984 155.491 227.859 182.554 222.705 182.554Z" fill="#231F20"/>
<path d="M170.871 249.678C170.676 249.678 170.579 249.581 170.482 249.484C169.023 246.865 135.472 184.979 139.459 175.279C143.446 165.579 197.031 148.798 199.365 148.119C199.462 148.119 199.559 148.119 199.559 148.119L227.081 155.006C227.276 155.103 227.373 155.2 227.373 155.394C227.373 156.364 227.956 178.383 224.164 182.36C223.775 182.748 223.288 183.039 222.705 183.039L168.537 183.524L193.627 239.978C193.627 240.075 193.627 240.172 193.627 240.269C193.627 240.366 193.53 240.463 193.433 240.463L170.968 249.484C170.968 249.678 170.968 249.678 170.871 249.678ZM199.462 148.895C196.642 149.768 144.03 166.452 140.237 175.57C136.444 184.494 168.342 243.664 171.065 248.708L192.752 239.978L167.564 183.33C167.467 183.136 167.564 182.845 167.759 182.748C167.856 182.748 167.856 182.748 167.953 182.748C168.537 182.748 221.635 182.166 222.705 182.166C222.997 182.166 223.386 181.972 223.58 181.778C226.984 178.286 226.595 158.595 226.595 155.782L199.462 148.895Z" fill="#231F20"/>
<path d="M165.132 117.176C165.132 117.176 132.845 110.289 125.357 106.118C125.357 106.118 121.273 97.0966 119.814 97.1936C118.355 97.2906 121.953 105.342 121.953 105.342C121.953 105.342 109.116 100.88 108.436 102.141C107.755 103.402 109.116 103.79 109.116 103.79C109.116 103.79 107.463 103.693 107.658 104.76C107.852 105.827 108.533 105.633 108.533 105.633C108.533 105.633 106.782 105.827 106.88 106.797C106.977 107.767 108.241 107.767 108.241 107.767C108.241 107.767 106.102 107.573 106.977 108.931C107.852 110.289 118.841 114.169 125.26 116.982C131.678 119.795 170.676 137.74 170.676 137.74L165.132 117.176Z" fill="white"/>
<path d="M170.773 138.419C170.676 138.419 170.676 138.419 170.579 138.419C170.19 138.225 131.484 120.474 125.163 117.661C123.023 116.691 120.3 115.624 117.577 114.557C111.256 112.035 107.269 110.386 106.685 109.416C106.394 109.028 106.296 108.543 106.491 108.155C106.588 108.058 106.685 107.864 106.783 107.864C106.588 107.67 106.491 107.379 106.491 107.185C106.394 106.894 106.491 106.603 106.685 106.312C106.88 106.118 107.172 105.924 107.463 105.73C107.366 105.536 107.269 105.342 107.269 105.148C107.172 104.857 107.269 104.469 107.463 104.178C107.658 103.984 107.755 103.887 108.047 103.79C107.95 103.693 107.95 103.596 107.852 103.499C107.658 103.014 107.755 102.529 108.047 102.141C108.728 100.88 115.341 102.82 121.176 104.857C120.203 102.626 118.647 98.4549 119.231 97.3879C119.328 97.1939 119.522 96.9999 119.814 96.9999C121.37 96.8059 124.093 102.529 125.746 106.021C133.332 109.998 164.938 116.885 165.23 116.885C165.424 116.885 165.522 117.079 165.522 117.176L171.259 137.934C171.259 138.128 171.259 138.322 171.162 138.419C171.065 138.419 170.87 138.419 170.773 138.419ZM107.366 108.543C107.366 108.64 107.463 108.737 107.561 108.834C108.047 109.61 113.59 111.841 118.064 113.587C120.689 114.654 123.412 115.721 125.649 116.691C131.484 119.31 164.452 134.442 170.19 137.061L164.841 117.467C161.534 116.788 132.457 110.386 125.26 106.506C125.163 106.506 125.066 106.409 125.066 106.312C123.315 102.432 120.884 98.0669 120.106 97.6789C119.911 98.4549 121.176 102.141 122.537 105.245C122.634 105.439 122.537 105.633 122.44 105.73C122.343 105.827 122.148 105.924 121.954 105.827C116.313 103.887 109.7 102.044 108.922 102.529C108.825 102.723 108.825 102.917 108.825 103.111C108.922 103.305 109.117 103.499 109.408 103.596C109.603 103.693 109.797 103.887 109.7 104.081C109.7 104.275 109.506 104.469 109.214 104.469C108.922 104.469 108.533 104.469 108.241 104.663C108.241 104.663 108.241 104.76 108.241 104.857C108.339 105.245 108.533 105.439 108.533 105.439H108.63C108.922 105.439 109.117 105.633 109.117 105.827C109.117 106.021 109.019 106.215 108.825 106.312H108.63C108.241 106.312 107.852 106.506 107.561 106.7C107.561 106.797 107.561 106.797 107.561 106.894C107.658 107.282 107.95 107.476 108.339 107.476H108.533C108.728 107.476 108.922 107.67 108.922 107.961C108.922 108.252 108.63 108.446 108.339 108.349C107.95 108.349 107.658 108.349 107.366 108.543Z" fill="#231F20"/>
<path d="M188.57 63.6317C191.9 63.6317 194.599 60.3311 194.599 56.2597C194.599 52.1883 191.9 48.8877 188.57 48.8877C185.24 48.8877 182.54 52.1883 182.54 56.2597C182.54 60.3311 185.24 63.6317 188.57 63.6317Z" fill="#231F20"/>
<path d="M188.57 64.02C184.972 64.02 182.151 60.528 182.151 56.26C182.151 51.992 185.069 48.5 188.57 48.5C192.071 48.5 195.086 51.992 195.086 56.26C195.086 60.528 192.168 64.02 188.57 64.02ZM188.57 49.276C185.458 49.276 182.929 52.38 182.929 56.26C182.929 60.14 185.458 63.244 188.57 63.244C191.682 63.244 194.21 60.14 194.21 56.26C194.21 52.38 191.682 49.276 188.57 49.276Z" fill="#231F20"/>
<path d="M235.93 86.912C233.791 84.584 230.873 82.256 231.068 79.152C231.165 78.085 231.554 77.018 231.651 75.951C231.943 72.847 229.512 70.131 226.983 68.288C224.455 66.445 221.537 64.893 219.981 62.177C217.161 57.327 219.009 51.216 216.48 46.075C214.146 41.225 209.673 37.83 204.324 36.763C200.337 35.987 195.669 36.181 192.362 38.606C189.056 41.031 186.819 44.717 186.138 48.791C185.652 52.089 186.236 55.387 186.527 58.782C186.819 62.08 186.625 65.669 184.874 68.482C183.124 71.295 180.012 72.847 177.289 74.69C172.718 77.794 169.509 85.554 172.037 90.598C175.344 97.194 181.762 101.559 187.792 105.342C197.419 111.259 208.117 116.497 219.398 118.34C224.163 119.116 229.317 119.213 233.791 117.273C245.947 112.035 243.613 94.963 235.93 86.912Z" fill="white"/>
<path d="M225.428 119.31C223.385 119.31 221.343 119.116 219.398 118.825C209.77 117.273 199.656 113.102 187.695 105.827C181.762 102.238 175.149 97.7758 171.746 90.8888C169.023 85.4568 172.426 77.5998 177.192 74.3988C177.678 74.0108 178.261 73.7198 178.845 73.3318C180.984 71.9738 183.318 70.5188 184.68 68.2878C186.528 65.3778 186.528 61.4978 186.333 58.8788C186.236 58.1028 186.236 57.2298 186.139 56.4538C185.75 53.9318 185.75 51.3128 186.041 48.7908C186.722 44.6198 188.959 40.8368 192.46 38.3148C195.377 36.1808 199.948 35.4048 204.811 36.3748C210.257 37.4418 214.827 41.0308 217.259 45.9778C218.523 48.4998 218.717 51.2158 218.815 53.9318C219.009 56.8418 219.204 59.5578 220.662 61.9828C221.829 64.0198 223.872 65.3778 225.914 66.7358C226.497 67.1238 226.984 67.5118 227.567 67.8998C229.901 69.6458 232.721 72.4588 232.43 75.9508C232.332 76.4358 232.235 77.0178 232.138 77.5028C232.041 78.0848 231.943 78.5698 231.846 79.1518C231.749 81.6738 233.694 83.7108 235.639 85.6508C235.931 85.9418 236.32 86.3298 236.611 86.6208C241.571 91.8588 244.1 100.298 242.738 107.088C241.96 111.841 238.751 115.818 234.375 117.661C231.36 118.825 228.345 119.407 225.428 119.31ZM200.337 36.8598C197.614 36.7628 194.891 37.5388 192.654 38.9938C189.445 41.3218 187.208 44.9108 186.625 48.8878C186.333 51.4098 186.43 53.8348 186.722 56.3568C186.819 57.1328 186.917 58.0058 186.917 58.7818C187.111 61.4978 187.111 65.5718 185.166 68.7728C183.707 71.1008 181.276 72.6528 179.039 74.1078C178.456 74.3988 177.97 74.7868 177.483 75.1748C173.204 78.0848 169.898 85.6508 172.426 90.5008C175.733 97.0968 182.249 101.462 188.084 105.051C199.948 112.326 209.965 116.4 219.495 117.952C225.33 118.922 229.901 118.534 233.597 116.885C237.778 115.139 240.696 111.356 241.474 106.894C242.738 100.298 240.404 92.2468 235.542 87.2028C235.25 86.9118 234.958 86.5238 234.569 86.2328C232.624 84.1958 230.387 81.9648 230.485 79.0548C230.485 78.4728 230.679 77.8908 230.776 77.3088C230.874 76.8238 230.971 76.3388 231.068 75.8538C231.36 72.7498 228.831 70.2278 226.595 68.5788C226.011 68.1908 225.525 67.8028 224.941 67.4148C222.899 65.9598 220.76 64.5048 219.495 62.3708C217.939 59.7518 217.745 56.7448 217.55 53.8348C217.356 51.2158 217.161 48.5968 215.994 46.2688C213.758 41.6128 209.381 38.2178 204.227 37.1508C202.963 36.9568 201.699 36.8598 200.337 36.8598Z" fill="#231F20"/>
<path d="M180.011 88.27L160.756 114.363C160.756 114.363 161.826 117.855 170.87 138.031C178.844 134.054 191.39 112.52 191.39 112.52L180.011 88.27Z" fill="#231F20"/>
<path d="M200.823 78.4728C200.823 78.4728 183.416 80.4128 179.234 88.8518C175.052 97.2908 176.219 147.149 176.219 147.149L232.332 148.41C232.332 148.41 232.041 94.0898 224.844 81.0918C222.218 78.3758 217.356 77.5998 200.823 78.4728Z" fill="#231F20"/>
<path d="M195.669 72.5557L195.572 82.7407C195.572 82.7407 196.642 88.3667 202.768 86.7177C206.464 85.6507 209.479 82.9347 211.035 79.4427L210.354 61.8857C209.576 58.7817 209.187 55.5807 209.284 52.4767C201.796 52.3797 195.864 46.6567 195.864 46.6567C195.864 46.6567 193.238 50.5367 192.168 51.7977C191.293 52.6707 190.515 53.7377 189.834 54.9017C188.764 56.8417 188.862 59.2667 188.862 61.4977C188.862 64.0197 189.153 66.6387 189.64 69.1607C190.709 73.7197 195.669 72.5557 195.669 72.5557Z" fill="white"/>
<path d="M200.726 87.4939C199.656 87.4939 198.684 87.2029 197.808 86.7179C196.447 85.8449 195.572 84.3899 195.28 82.8379V73.1379C193.918 73.3319 192.557 73.0409 191.39 72.3619C190.223 71.5859 189.542 70.4219 189.25 69.0639C188.764 66.5419 188.472 63.9229 188.472 61.3039C188.375 59.1699 188.375 56.6479 189.445 54.5139C190.126 53.3499 191.001 52.3799 191.973 51.4099C193.043 50.2459 195.572 46.3659 195.669 46.3659C195.766 46.2689 195.863 46.1719 195.961 46.1719C196.058 46.1719 196.252 46.1719 196.35 46.2689C196.447 46.2689 202.282 51.7979 209.478 51.8949C209.576 51.8949 209.673 51.9919 209.77 51.9919C209.867 52.0889 209.965 52.1859 209.965 52.2829C209.867 55.1929 210.062 58.0059 210.84 60.8189C210.937 61.1099 210.937 61.4009 211.034 61.6919C211.034 61.6919 211.034 61.9829 211.715 79.2489C211.715 79.3459 211.715 79.3459 211.715 79.4429C210.159 83.1289 207.047 85.9419 203.157 87.0089C202.282 87.2999 201.504 87.4939 200.726 87.4939ZM196.058 82.7409C196.544 85.3599 199.073 87.1059 201.601 86.6209C201.99 86.5239 202.282 86.4269 202.671 86.3299C206.172 85.2629 209.089 82.7409 210.548 79.4429C210.451 78.0849 209.867 62.0799 209.867 61.9829C209.867 61.7889 209.77 61.4979 209.673 61.3039C208.992 58.5879 208.7 55.7749 208.798 52.9619C202.379 52.6709 197.322 48.6939 195.863 47.4329C195.183 48.4999 193.335 51.1189 192.362 52.1859C191.487 53.0589 190.709 54.0289 190.126 55.1929C189.153 57.0359 189.153 59.4609 189.25 61.4979C189.25 64.0199 189.542 66.5419 190.028 69.0639C190.223 70.1309 190.806 71.1009 191.779 71.7799C192.946 72.3619 194.307 72.5559 195.572 72.3619C195.669 72.3619 195.863 72.3619 195.961 72.4589C196.058 72.5559 196.155 72.6529 196.155 72.8469L196.058 82.7409Z" fill="#231F20"/>
<path d="M195.766 77.5998C195.766 77.5998 199.851 77.7938 202.574 75.0778C204.13 73.6228 204.908 71.6828 204.81 69.5488C204.81 69.5488 200.337 72.5558 195.669 72.6528L195.766 77.5998Z" fill="#231F20"/>
<path d="M195.961 77.9876H195.767C195.572 77.9876 195.378 77.7936 195.378 77.5996L195.28 72.5556C195.28 72.3616 195.475 72.1676 195.669 72.1676C200.143 72.0706 204.519 69.1606 204.519 69.1606C204.616 69.0636 204.811 69.0636 204.908 69.1606C205.005 69.2576 205.103 69.3546 205.2 69.4516C205.297 71.6826 204.422 73.8166 202.866 75.2716C201.018 77.0176 198.49 77.9876 195.961 77.9876ZM196.156 72.9436L196.253 77.1146C198.49 77.1146 200.629 76.2416 202.282 74.6896C203.547 73.5256 204.227 71.9736 204.422 70.2276C201.893 71.7796 199.073 72.6526 196.156 72.9436Z" fill="#231F20"/>
<path d="M199.267 58.0059C199.267 58.0059 195.961 62.8559 196.739 63.7289C197.517 64.6019 199.656 64.0199 199.656 64.0199" fill="white"/>
<path d="M198.295 64.602C197.614 64.699 196.933 64.408 196.447 64.02C195.572 63.05 197.614 59.655 198.878 57.715C198.975 57.521 199.267 57.424 199.462 57.618C199.656 57.715 199.753 58.006 199.559 58.2C198.003 60.528 196.836 62.953 197.03 63.438C197.419 63.923 198.781 63.729 199.559 63.632C199.753 63.535 200.045 63.729 200.045 63.923C200.142 64.117 199.948 64.408 199.753 64.408C199.364 64.505 198.878 64.602 198.295 64.602Z" fill="#231F20"/>
<path d="M195.264 57.1119C195.287 56.5231 195.045 56.0355 194.723 56.0229C194.401 56.0103 194.121 56.4774 194.098 57.0662C194.074 57.655 194.317 58.1426 194.639 58.1552C194.961 58.1678 195.241 57.7007 195.264 57.1119Z" fill="#231F20"/>
<path d="M202.989 56.2388C203.013 55.65 202.77 55.1625 202.448 55.1498C202.126 55.1372 201.846 55.6043 201.823 56.1931C201.8 56.7819 202.042 57.2695 202.364 57.2821C202.686 57.2947 202.966 56.8276 202.989 56.2388Z" fill="#231F20"/>
<path d="M212.396 65.0868C215.726 65.0868 218.425 61.7862 218.425 57.7148C218.425 53.6433 215.726 50.3428 212.396 50.3428C209.066 50.3428 206.366 53.6433 206.366 57.7148C206.366 61.7862 209.066 65.0868 212.396 65.0868Z" fill="#231F20"/>
<path d="M212.396 65.4746C208.798 65.4746 205.978 61.9826 205.978 57.7146C205.978 53.4466 208.895 49.9546 212.396 49.9546C215.897 49.9546 218.912 53.4466 218.912 57.7146C218.912 61.9826 215.897 65.4746 212.396 65.4746ZM212.396 50.7306C209.284 50.7306 206.756 53.8346 206.756 57.7146C206.756 61.5946 209.284 64.6016 212.396 64.6016C215.508 64.6016 218.037 61.4976 218.037 57.7146C218.037 53.9316 215.508 50.7306 212.396 50.7306Z" fill="#231F20"/>
<path d="M210.645 51.8947C209.576 46.7537 207.436 41.9037 204.519 37.6357C205.977 37.9267 207.436 38.4117 208.7 39.0907C208.7 39.0907 213.66 45.9777 214.535 53.9317L210.645 51.8947Z" fill="#231F20"/>
<path d="M214.535 54.417C214.438 54.417 214.438 54.417 214.341 54.32L210.548 52.283C210.451 52.186 210.353 52.089 210.353 51.992C209.284 46.948 207.241 42.098 204.324 37.927C204.227 37.83 204.227 37.636 204.324 37.442C204.421 37.248 204.616 37.248 204.713 37.248C206.172 37.539 207.63 38.024 208.992 38.8C209.089 38.8 209.089 38.897 209.186 38.897C209.381 39.188 214.243 45.978 215.021 53.932C215.021 54.126 215.021 54.223 214.827 54.32C214.632 54.32 214.632 54.417 214.535 54.417ZM211.034 51.604L213.952 53.156C213.076 48.209 211.229 43.553 208.408 39.382C207.436 38.897 206.463 38.509 205.491 38.218C208.117 42.389 209.964 46.851 211.034 51.604Z" fill="#231F20"/>
<path d="M210.645 63.6319C210.548 63.6319 210.451 63.6319 210.353 63.5349C208.408 61.6919 207.533 59.7519 207.63 57.8119C207.825 55.6779 208.895 53.7379 210.548 52.3799C210.742 52.1859 210.937 52.1859 211.131 52.3799C211.326 52.5739 211.326 52.7679 211.131 52.9619C211.131 52.9619 211.131 52.9619 211.034 53.0589C209.575 54.3199 208.603 56.0659 208.408 57.9089C208.408 59.8489 209.381 61.7889 210.84 62.9529C211.034 63.1469 211.034 63.4379 210.84 63.5349C210.84 63.5349 210.742 63.6319 210.645 63.6319Z" fill="white"/>
<path d="M197.128 66.5418L199.754 65.8628C199.754 65.8628 200.337 69.6458 198.781 70.0338C197.225 70.4218 197.128 66.5418 197.128 66.5418Z" fill="white"/>
<path d="M198.587 70.5188C198.295 70.5188 198.101 70.4218 197.906 70.3248C196.837 69.5488 196.739 66.9298 196.739 66.6388C196.739 66.4448 196.837 66.2508 197.031 66.2508L199.657 65.5718C199.754 65.5718 199.851 65.5718 200.046 65.6688C200.143 65.7658 200.24 65.8628 200.24 65.9598C200.338 66.6388 200.727 70.1308 198.976 70.6158C198.782 70.5188 198.684 70.5188 198.587 70.5188ZM197.517 66.9298C197.615 67.8998 197.906 69.2578 198.393 69.5488C198.49 69.6458 198.587 69.6458 198.684 69.6458C199.365 69.4518 199.462 67.8028 199.365 66.4448L197.517 66.9298Z" fill="#231F20"/>
<path d="M176.121 136.77C175.83 136.673 175.635 136.479 175.732 136.285L185.263 92.7318C185.36 92.5378 185.555 92.3438 185.749 92.4408C185.944 92.5378 186.138 92.7318 186.041 92.9258L176.51 136.479C176.413 136.673 176.316 136.77 176.121 136.77Z" fill="white"/>
<path d="M172.231 183.427V184.203C172.231 190.217 177.191 195.164 183.221 195.164H237.389C243.418 195.164 248.378 190.217 248.378 184.203V108.543C248.378 100.589 234.277 98.9397 230.29 99.5217V146.955C230.29 146.955 210.742 144.142 202.962 156.558C198.392 163.736 197.905 182.942 197.905 182.942L172.231 183.427Z" fill="white"/>
<path d="M237.389 195.552H183.221C176.899 195.552 171.745 190.411 171.745 184.106V183.33C171.745 183.136 171.94 182.845 172.134 182.845L197.419 182.36C197.516 179.45 198.294 162.863 202.573 156.17C209.77 144.724 226.691 145.985 229.803 146.276V99.3278C229.803 99.1338 229.998 98.9398 230.192 98.9398C233.11 98.5518 241.765 99.2308 246.239 103.111C247.892 104.372 248.767 106.409 248.767 108.446V184.106C248.767 190.411 243.71 195.552 237.389 195.552ZM172.62 183.815V184.106C172.62 189.926 177.386 194.582 183.221 194.679H237.389C243.224 194.679 247.892 189.926 247.892 184.106V108.446C247.892 106.603 247.017 104.954 245.655 103.79C241.668 100.298 233.791 99.5218 230.679 99.8128V146.858C230.679 146.955 230.581 147.149 230.484 147.149C230.387 147.246 230.29 147.246 230.095 147.246C229.901 147.246 210.742 144.627 203.157 156.655C198.683 163.639 198.197 182.651 198.197 182.845C198.197 183.039 198.003 183.233 197.808 183.233L172.62 183.815Z" fill="#231F20"/>
<path d="M224.844 81.0918C224.844 81.0918 242.155 115.43 247.795 123.481C253.436 131.532 252.852 142.687 252.852 142.687L235.736 141.426C235.736 141.426 220.079 116.012 215.605 109.707L224.844 81.0918Z" fill="#231F20"/>
<path d="M252.949 142.59C252.949 142.59 246.823 131.435 238.751 130.077C230.679 128.719 197.322 133.278 197.322 133.278C197.322 133.278 192.265 131.144 190.126 132.211C187.986 133.278 178.65 138.613 180.012 140.456C181.373 142.299 184.583 139.68 186.722 140.456C188.862 141.232 193.627 141.038 196.836 141.232C200.045 141.426 253.241 146.373 252.949 142.59Z" fill="white"/>
<path d="M242.641 144.53C231.457 144.53 213.466 143.172 197.614 141.814L196.739 141.717C195.669 141.62 194.405 141.62 193.141 141.62C190.612 141.523 187.889 141.523 186.43 140.941C185.458 140.747 184.485 140.844 183.513 141.232C182.054 141.62 180.498 142.105 179.526 140.747C179.331 140.456 179.234 140.068 179.331 139.777C180.012 136.964 189.737 131.92 189.834 131.92C191.974 130.853 196.544 132.599 197.322 132.89C199.851 132.502 230.971 128.428 238.751 129.689C246.92 131.047 252.949 142.008 253.241 142.396C253.241 142.493 253.338 142.493 253.338 142.59C253.338 142.881 253.241 143.075 253.047 143.269C252.269 144.142 248.379 144.53 242.641 144.53ZM185.75 139.971C186.139 139.971 186.528 140.068 186.819 140.165C188.181 140.65 190.709 140.747 193.238 140.747C194.599 140.747 195.766 140.844 196.836 140.844L197.711 140.941C236.514 144.336 251.393 143.948 252.463 142.687C251.685 141.329 245.947 131.726 238.751 130.562C230.874 129.204 197.809 133.666 197.42 133.763C197.322 133.763 197.225 133.763 197.225 133.763C195.864 133.181 191.974 131.92 190.418 132.696C187.792 134.054 180.887 138.128 180.401 140.068C180.401 140.165 180.401 140.262 180.401 140.359C180.984 141.135 181.86 140.941 183.416 140.456C184.096 140.165 184.874 139.971 185.75 139.971Z" fill="#231F20"/>
<path d="M227.664 127.555C227.47 127.555 227.372 127.458 227.275 127.264L215.508 101.656C215.411 101.462 215.508 101.171 215.702 101.074C215.897 100.977 216.189 101.074 216.286 101.268L228.053 126.876C228.15 127.07 228.053 127.361 227.859 127.458C227.761 127.555 227.664 127.555 227.664 127.555Z" fill="white"/>
<path d="M148.406 201.178C148.211 201.178 148.114 201.081 148.017 200.887C146.85 198.365 137.027 176.346 139.556 172.951C142.084 169.556 179.039 154.715 180.595 154.036C180.79 153.939 181.082 154.036 181.179 154.23C181.276 154.424 181.179 154.715 180.984 154.812H180.887C170.19 159.08 142.084 170.914 140.139 173.436C138.486 175.667 144.418 190.799 148.795 200.499C148.892 200.693 148.795 200.984 148.6 201.081C148.6 201.178 148.503 201.178 148.406 201.178Z" fill="white"/>
<path d="M193.335 240.172C193.335 240.172 198.1 249.096 197.322 249.581C196.544 250.066 162.798 266.459 163.965 263.258C165.132 260.057 170.87 249.29 170.87 249.29" fill="white"/>
<path d="M164.355 264.034C164.16 264.034 163.966 264.034 163.771 263.937C163.479 263.743 163.479 263.355 163.577 263.064C164.841 259.863 170.19 249.387 170.481 248.999C170.579 248.805 170.87 248.708 171.065 248.805C171.259 248.902 171.357 249.193 171.259 249.387C171.162 249.484 165.813 259.863 164.452 263.161C167.856 263.161 194.405 250.648 196.836 249.193C196.836 248.223 194.794 244.052 192.849 240.269C192.752 240.075 192.849 239.784 193.043 239.687C193.238 239.59 193.53 239.687 193.627 239.881C198.489 249.096 197.809 249.678 197.517 249.872C197.225 250.066 169.12 264.034 164.355 264.034Z" fill="#231F20"/>
<path d="M144.126 252.394L142.57 264.034C142.57 264.034 104.254 265.295 105.712 263.549C107.171 261.803 121.175 250.066 121.175 250.066" fill="white"/>
<path d="M119.717 264.907C111.84 264.907 105.518 264.616 105.129 263.84C105.032 263.646 105.032 263.355 105.227 263.258C106.685 261.512 120.203 250.163 120.787 249.678C120.981 249.484 121.273 249.581 121.37 249.775C121.565 249.969 121.565 250.26 121.37 250.357C121.273 250.454 108.533 261.027 106.199 263.549C109.117 264.422 129.247 264.034 142.084 263.646L143.64 252.394C143.64 252.103 143.932 252.006 144.127 252.006C144.321 252.006 144.516 252.297 144.516 252.491L142.96 264.131C142.96 264.325 142.765 264.519 142.571 264.519C135.958 264.616 127.108 264.907 119.717 264.907Z" fill="#231F20"/>
<path d="M250.518 266.265H244.975L228.929 195.164H236.611L250.518 266.265Z" fill="white"/>
<path d="M250.518 266.653H244.975C244.78 266.653 244.586 266.459 244.586 266.265L228.442 195.164C228.442 195.067 228.442 194.873 228.54 194.776C228.637 194.679 228.734 194.582 228.929 194.582H236.709C236.903 194.582 237.098 194.776 237.098 194.97L251.004 266.071C251.004 266.168 251.004 266.362 250.907 266.459C250.81 266.653 250.713 266.653 250.518 266.653ZM245.364 265.78H249.935L236.222 195.552H229.415L245.364 265.78Z" fill="#231F20"/>
<path d="M236.125 226.786C236.028 226.786 235.93 226.786 235.93 226.689L193.724 202.439C193.529 202.342 193.432 202.051 193.529 201.857C193.627 201.663 193.918 201.566 194.113 201.663L236.319 225.913C236.514 226.01 236.611 226.301 236.514 226.495C236.417 226.689 236.319 226.786 236.125 226.786Z" fill="#231F20"/>
<path d="M188.57 226.786C188.376 226.786 188.084 226.592 188.084 226.398C188.084 226.204 188.181 226.107 188.278 226.01L230.485 201.76C230.679 201.663 230.971 201.663 231.068 201.954C231.166 202.148 231.068 202.439 230.874 202.536L188.667 226.786C188.667 226.689 188.57 226.786 188.57 226.786Z" fill="#231F20"/>
<path d="M70.8972 266.459H67.1045L74.8845 150.059H81.303L70.8972 266.459Z" fill="white"/>
<path d="M70.8972 266.944H67.0072C66.9099 266.944 66.8127 266.847 66.7154 266.847C66.6182 266.75 66.6182 266.653 66.6182 266.556L74.3982 150.156C74.3982 149.962 74.5927 149.768 74.8844 149.768H81.3029C81.5947 149.768 81.7892 149.962 81.7892 150.253L71.4807 266.653C71.2862 266.75 71.1889 266.944 70.8972 266.944ZM67.5907 266.071H70.5082L80.8167 150.544H75.2734L67.5907 266.071Z" fill="#231F20"/>
<path d="M264.911 266.459H268.801L261.021 150.059H254.603L264.911 266.459Z" fill="white"/>
<path d="M268.801 266.944H264.911C264.716 266.944 264.522 266.75 264.425 266.556L254.116 150.156C254.116 150.059 254.116 149.865 254.213 149.768C254.311 149.671 254.408 149.574 254.505 149.671H260.924C261.118 149.671 261.313 149.865 261.41 150.059L269.19 266.459C269.19 266.556 269.19 266.653 269.093 266.75C268.995 266.847 268.898 266.944 268.801 266.944ZM265.397 266.071H268.315L260.632 150.544H255.089L265.397 266.071Z" fill="#231F20"/>
<path d="M55.2398 142.105H280.665C282.902 142.105 284.75 143.948 284.75 146.179C284.75 148.41 282.902 150.253 280.665 150.253H55.2398C53.003 150.253 51.1553 148.41 51.1553 146.179C51.1553 143.948 52.9058 142.105 55.2398 142.105Z" fill="white"/>
<path d="M280.665 150.738H55.2397C52.7112 150.738 50.6689 148.701 50.6689 146.179C50.6689 143.657 52.7112 141.62 55.2397 141.62H280.665C283.194 141.62 285.236 143.657 285.236 146.179C285.236 148.701 283.194 150.738 280.665 150.738ZM55.2397 142.493C53.1974 142.396 51.4469 143.948 51.3497 145.985C51.2524 148.022 52.8084 149.768 54.8507 149.865C54.9479 149.865 55.1424 149.865 55.2397 149.865H280.665C282.707 149.768 284.263 148.022 284.166 145.985C284.069 144.142 282.61 142.59 280.665 142.493H55.2397Z" fill="#231F20"/>
<path d="M159.59 79.4427L165.036 77.5997C166.981 76.9207 169.218 77.9877 169.898 80.0247L170.579 82.0617C171.26 84.0987 170.19 86.2327 168.148 86.9117L162.702 88.7547L159.59 79.4427Z" fill="white"/>
<path d="M162.605 89.1428C162.41 89.1428 162.216 89.0458 162.216 88.8518L159.104 79.6368C159.104 79.5398 159.104 79.4428 159.104 79.3458C159.104 79.2488 159.201 79.1518 159.395 79.1518L164.841 77.3088C167.078 76.5328 169.509 77.7938 170.287 80.0248L170.968 82.0618C171.746 84.2928 170.579 86.7178 168.342 87.4938L162.896 89.3368L162.605 89.1428ZM160.076 79.7338L162.896 88.1728L167.953 86.5238C168.829 86.2328 169.509 85.6508 169.898 84.8748C170.287 84.0988 170.385 83.1288 170.093 82.2558L169.412 80.2188C169.12 79.3458 168.537 78.6668 167.759 78.2788C166.981 77.8908 166.008 77.7938 165.23 78.0848L160.076 79.7338Z" fill="#231F20"/>
<path d="M144.127 84.2929L159.493 79.1519L162.702 88.8519L147.337 93.9929C144.808 94.8659 141.988 93.5079 141.21 90.8889L141.015 90.4039C140.237 87.9789 141.599 85.1659 144.127 84.2929Z" fill="#231F20"/>
<path d="M145.878 94.6716C143.544 94.6716 141.501 93.2166 140.821 91.0826L140.626 90.5976C139.654 87.7846 141.21 84.7776 144.03 83.9046L159.395 78.8606C159.59 78.7636 159.882 78.8606 159.979 79.1516L163.188 88.8516C163.188 88.9486 163.188 89.0456 163.188 89.1426C163.091 89.2396 162.994 89.3366 162.896 89.3366L147.531 94.3806C147.045 94.5746 146.461 94.6716 145.878 94.6716ZM144.322 84.6806C141.988 85.4566 140.723 87.9786 141.501 90.3066L141.696 90.7916C142.474 93.1196 145.002 94.3806 147.336 93.6046L162.313 88.6576L159.298 79.7336L144.322 84.6806Z" fill="#231F20"/>
<path d="M141.015 90.3066L139.167 90.9856L139.945 92.9256L141.987 92.1496L141.015 90.3066Z" fill="#231F20"/>
<path d="M139.945 93.4107C139.751 93.4107 139.654 93.3137 139.556 93.1197L138.778 91.1797C138.681 90.9857 138.778 90.6947 138.973 90.5977L140.821 89.8217C141.015 89.7247 141.307 89.8217 141.404 90.0157L142.377 91.9557C142.474 92.0527 142.474 92.1497 142.377 92.3437C142.377 92.4407 142.279 92.5377 142.085 92.5377L140.043 93.3137C140.043 93.4107 139.945 93.4107 139.945 93.4107ZM139.751 91.2767L140.237 92.4407L141.501 91.9557L140.918 90.7917L139.751 91.2767Z" fill="#231F20"/>
<path d="M144.905 139.292H161.048C162.312 139.292 163.382 140.359 163.382 141.62V142.105H142.571V141.62C142.473 140.359 143.543 139.292 144.905 139.292Z" fill="white"/>
<path d="M163.383 142.59H142.571C142.279 142.59 142.085 142.396 142.085 142.105V141.62C142.085 140.068 143.349 138.807 144.905 138.807H161.049C162.605 138.807 163.869 140.068 163.869 141.62V142.105C163.772 142.396 163.674 142.59 163.383 142.59ZM142.96 141.717H162.896C162.896 140.65 162.021 139.777 160.951 139.777H144.905C143.835 139.777 142.96 140.65 142.96 141.717Z" fill="#231F20"/>
<path d="M152.88 86.7178C154.144 86.7178 155.116 87.6878 155.116 88.9488V139.292H150.74V88.9488C150.643 87.6878 151.615 86.7178 152.88 86.7178Z" fill="white"/>
<path d="M155.019 139.777H150.643C150.351 139.777 150.156 139.583 150.156 139.292V88.949C150.254 87.494 151.518 86.33 152.976 86.427C154.338 86.524 155.408 87.591 155.505 88.949V139.292C155.505 139.583 155.311 139.777 155.019 139.777ZM151.129 138.904H154.63V88.949C154.63 87.979 153.852 87.203 152.879 87.203C151.907 87.203 151.129 87.979 151.129 88.949V138.904Z" fill="#231F20"/>
<path d="M155.213 126.294C155.116 126.294 155.019 126.197 154.922 126.197C154.727 126.003 154.727 125.809 154.922 125.615C156.964 123.966 158.228 121.541 158.52 118.922C158.617 117.176 157.839 115.43 156.575 114.169C154.922 112.617 152.879 111.453 150.643 110.871C149.767 110.58 148.892 110.386 148.114 110.095C146.655 109.707 145.294 109.222 143.932 108.737C141.598 107.767 138.584 106.021 137.222 102.723C135.666 99.2306 136.055 95.1566 138.292 91.9556C138.389 91.7616 138.681 91.7616 138.875 91.8586C139.07 91.9556 139.07 92.2466 138.973 92.4406C136.93 95.3506 136.541 99.1336 138 102.335C139.264 105.342 142.085 106.991 144.224 107.864C145.586 108.349 146.947 108.834 148.309 109.222C149.184 109.416 150.059 109.707 150.934 109.998C153.268 110.677 155.408 111.841 157.158 113.49C158.617 114.945 159.395 116.885 159.298 118.922C159.006 121.735 157.645 124.451 155.408 126.197C155.311 126.197 155.311 126.197 155.213 126.294Z" fill="#231F20"/>
<path d="M64.868 111.744H102.504C103.476 111.744 104.352 112.423 104.643 113.393L111.645 138.71H136.055C136.93 138.613 137.708 139.292 137.708 140.165C137.806 141.038 137.125 141.814 136.25 141.814C136.152 141.814 136.055 141.814 135.958 141.814H71.9673C70.9948 141.814 70.1195 141.135 69.8278 140.165L62.7285 114.46C62.4368 113.296 63.1175 112.035 64.2845 111.744C64.5763 111.744 64.6735 111.744 64.868 111.744Z" fill="#231F20"/>
<path d="M136.055 142.202H71.967C70.8 142.202 69.7303 141.426 69.4385 140.262L62.4365 114.654C62.0475 113.296 62.8255 111.841 64.2843 111.453C64.4788 111.356 64.7705 111.356 64.965 111.356H102.601C103.768 111.356 104.838 112.132 105.129 113.296L112.034 138.322H136.152C137.222 138.322 138.097 139.195 138.097 140.262C138.097 141.329 137.125 142.202 136.055 142.202ZM64.8678 112.132C63.8953 112.132 63.1173 112.908 63.1173 113.878C63.1173 114.072 63.1173 114.169 63.2145 114.363L70.2165 139.971C70.411 140.747 71.0918 141.232 71.967 141.329H136.055C136.638 141.232 137.125 140.747 137.027 140.068C136.93 139.486 136.541 139.098 136.055 139.098H111.645C111.451 139.098 111.256 139.001 111.256 138.807L104.254 113.587C104.06 112.811 103.379 112.229 102.504 112.326L64.8678 112.132Z" fill="#231F20"/>
<path d="M110.575 138.807H72.9394C72.6476 138.807 72.4531 138.613 72.4531 138.322C72.4531 138.031 72.6476 137.837 72.9394 137.837H110.575C110.867 137.837 111.061 138.031 111.061 138.322C111.061 138.613 110.867 138.807 110.575 138.807Z" fill="white"/>
<path d="M106.588 75.563H49.2109C46.9741 75.563 45.2236 73.817 45.2236 71.586V49.664C45.2236 47.433 46.9741 45.687 49.2109 45.687H106.588C108.825 45.687 110.576 47.433 110.576 49.664V71.586C110.576 73.72 108.825 75.563 106.588 75.563ZM49.2109 46.657C47.5576 46.657 46.1961 48.015 46.1961 49.664V71.586C46.1961 73.235 47.5576 74.593 49.2109 74.593H106.588C108.242 74.593 109.603 73.235 109.603 71.586V49.664C109.603 48.015 108.242 46.657 106.588 46.657H49.2109Z" fill="white"/>
<path d="M304.978 70.4219H274.441V100.88H304.978V70.4219Z" fill="white"/>
<path d="M304.978 101.365H274.441C274.15 101.365 273.955 101.171 273.955 100.88V70.422C273.955 70.131 274.15 69.937 274.441 69.937H304.978C305.27 69.937 305.464 70.131 305.464 70.422V100.88C305.464 101.171 305.27 101.365 304.978 101.365ZM274.928 100.395H304.492V70.907H274.928V100.395Z" fill="#D1D3D4"/>
<path d="M300.115 77.5999H279.304C279.012 77.5999 278.817 77.4059 278.817 77.1149C278.817 76.8239 279.012 76.6299 279.304 76.6299H300.115C300.407 76.6299 300.601 76.8239 300.601 77.1149C300.504 77.4059 300.31 77.5999 300.115 77.5999Z" fill="#D1D3D4"/>
<path d="M300.115 83.2263H279.304C279.012 83.2263 278.817 83.0323 278.817 82.7413C278.817 82.4503 279.012 82.2563 279.304 82.2563H300.115C300.407 82.2563 300.601 82.4503 300.601 82.7413C300.504 83.0323 300.31 83.2263 300.115 83.2263Z" fill="#D1D3D4"/>
<path d="M300.115 88.949H279.304C279.012 88.949 278.817 88.755 278.817 88.464C278.817 88.173 279.012 87.979 279.304 87.979H300.115C300.407 87.979 300.601 88.173 300.601 88.464C300.504 88.755 300.31 88.949 300.115 88.949Z" fill="#D1D3D4"/>
<path d="M293.113 94.6721H279.304C279.012 94.6721 278.817 94.4781 278.817 94.1871C278.817 93.8961 279.012 93.7021 279.304 93.7021H293.113C293.405 93.7021 293.599 93.8961 293.599 94.1871C293.599 94.4781 293.405 94.6721 293.113 94.6721Z" fill="#D1D3D4"/>
<path d="M292.141 66.251H287.278V73.429H292.141V66.251Z" fill="white"/>
<path d="M292.044 73.9141H287.182C286.89 73.9141 286.695 73.7201 286.695 73.4291V66.2511C286.695 65.9601 286.89 65.7661 287.182 65.7661H292.044C292.336 65.7661 292.53 65.9601 292.53 66.2511V73.4291C292.53 73.7201 292.336 73.9141 292.044 73.9141ZM287.765 72.9441H291.655V66.7361H287.765V72.9441Z" fill="#D1D3D4"/>
<path d="M293.891 210.296C293.989 208.744 293.697 207.095 292.919 205.737C292.141 204.767 291.46 203.797 290.877 202.827C290.001 200.984 290.585 198.85 290.39 196.813C290.196 195.067 289.418 193.515 288.251 192.254C287.181 191.187 285.82 190.411 284.847 189.344C283.194 187.501 282.708 184.882 281.735 182.651C280.374 179.45 278.04 176.637 275.025 174.794C276.873 178.48 272.691 183.136 274.539 186.725C275.122 187.889 276.289 188.665 276.678 189.926C277.748 192.836 274.247 196.037 275.317 198.947C275.9 200.402 277.456 201.275 278.137 202.633C279.109 204.476 278.331 206.707 278.429 208.841C278.526 211.751 280.276 214.37 282.416 216.31C283.777 217.571 285.139 218.638 286.598 219.802C288.251 221.16 289.029 222.615 290.488 220.384C292.627 217.474 293.794 213.982 293.891 210.296Z" fill="#231F20"/>
<path d="M295.739 211.945C295.155 209.714 294.766 207.289 295.739 205.155C296.809 202.73 299.337 201.081 299.629 198.462C299.823 196.813 298.948 195.067 299.337 193.418C299.726 191.769 301.088 190.605 302.157 189.344C304.783 186.531 306.339 182.845 306.534 178.965C308.284 181.002 309.743 183.33 310.715 185.852C311.688 188.374 311.493 191.284 310.132 193.612C309.743 194.097 309.354 194.679 309.062 195.358C308.576 197.007 309.937 198.559 310.715 200.111C311.591 201.954 311.396 204.088 310.229 205.737C308.77 207.58 305.853 208.259 305.172 210.587C304.978 211.46 304.88 212.236 304.88 213.109C304.589 216.116 302.449 218.735 299.434 219.511C297.684 219.899 297.684 219.22 297.392 217.765C297.003 215.922 296.225 213.982 295.739 211.945Z" fill="#231F20"/>
<path d="M290.196 195.843C288.932 191.575 288.445 187.016 287.181 182.748C286.111 179.353 284.653 176.152 283.097 172.951L288.445 175.182C290.196 175.861 292.044 176.734 292.822 178.48C294.28 181.39 291.655 185.173 293.211 187.986C293.891 188.956 294.572 189.829 295.35 190.605C296.906 192.836 296.712 195.843 295.836 198.462C295.447 199.529 293.891 205.252 292.433 203.7C291.849 203.118 291.849 200.693 291.557 199.82C291.071 198.559 290.585 197.201 290.196 195.843Z" fill="#231F20"/>
<path d="M293.113 253.073C292.043 245.992 288.737 221.257 288.64 220.966L289.612 220.869C289.612 221.063 293.016 245.895 294.086 252.976L293.113 253.073Z" fill="#231F20"/>
<path d="M294.378 259.766H293.405C293.503 251.424 297.004 219.414 298.949 217.28L299.629 217.959C298.171 219.511 294.475 250.454 294.378 259.766Z" fill="#231F20"/>
<path d="M296.225 258.117H295.253C296.031 240.075 292.238 202.245 292.141 201.857L293.113 201.76C293.113 202.148 297.003 240.075 296.225 258.117Z" fill="#231F20"/>
<path d="M283.972 236.098H303.908L302.546 256.177C302.352 259.669 299.434 262.385 295.933 262.385H292.043C288.542 262.385 285.625 259.669 285.43 256.177L283.972 236.098Z" fill="white"/>
<path d="M295.836 262.967H291.946C288.153 262.967 285.041 260.057 284.847 256.274L283.485 236.098C283.485 235.807 283.68 235.613 283.972 235.613C283.972 235.613 283.972 235.613 284.069 235.613H304.005C304.102 235.613 304.297 235.71 304.394 235.807C304.491 235.904 304.491 236.001 304.491 236.195L303.13 256.371C302.644 260.057 299.532 262.87 295.836 262.967ZM284.458 236.583L285.819 256.177C286.014 259.378 288.737 261.9 291.946 261.9H295.836C299.045 261.9 301.768 259.378 301.963 256.177L303.324 236.583H284.458Z" fill="#231F20"/>
</svg>
