<svg width="48" height="18" viewBox="0 0 48 18" fill="none" xmlns="http://www.w3.org/2000/svg">
<rect width="48" height="18" rx="9" fill="white"/>
<circle cx="9" cy="9" r="4" fill="#03B800"/>
<path d="M20.564 5.574C21.152 5.574 21.68 5.712 22.148 5.988C22.622 6.264 22.994 6.651 23.264 7.149C23.534 7.641 23.669 8.199 23.669 8.823C23.669 9.447 23.534 10.008 23.264 10.506C22.994 10.998 22.622 11.382 22.148 11.658C21.68 11.934 21.152 12.072 20.564 12.072C19.976 12.072 19.442 11.934 18.962 11.658C18.488 11.382 18.116 10.998 17.846 10.506C17.576 10.008 17.441 9.447 17.441 8.823C17.441 8.199 17.576 7.641 17.846 7.149C18.116 6.651 18.488 6.264 18.962 5.988C19.442 5.712 19.976 5.574 20.564 5.574ZM20.564 6.339C20.126 6.339 19.733 6.441 19.385 6.645C19.043 6.843 18.773 7.131 18.575 7.509C18.383 7.881 18.287 8.319 18.287 8.823C18.287 9.321 18.383 9.759 18.575 10.137C18.773 10.515 19.043 10.806 19.385 11.01C19.733 11.208 20.126 11.307 20.564 11.307C20.996 11.307 21.383 11.205 21.725 11.001C22.073 10.797 22.343 10.509 22.535 10.137C22.733 9.759 22.832 9.321 22.832 8.823C22.832 8.319 22.733 7.881 22.535 7.509C22.343 7.131 22.073 6.843 21.725 6.645C21.383 6.441 20.996 6.339 20.564 6.339ZM27.5031 6.996C27.9411 6.996 28.3311 7.098 28.6731 7.302C29.0151 7.506 29.2821 7.8 29.4741 8.184C29.6721 8.568 29.7711 9.018 29.7711 9.534C29.7711 10.05 29.6721 10.5 29.4741 10.884C29.2821 11.262 29.0151 11.553 28.6731 11.757C28.3311 11.961 27.9411 12.063 27.5031 12.063C27.0231 12.063 26.6151 11.943 26.2791 11.703C25.9491 11.457 25.7211 11.136 25.5951 10.74V14.34H24.7761V7.059H25.5951V8.319C25.7211 7.923 25.9491 7.605 26.2791 7.365C26.6151 7.119 27.0231 6.996 27.5031 6.996ZM27.2691 7.725C26.9511 7.725 26.6631 7.8 26.4051 7.95C26.1471 8.094 25.9461 8.304 25.8021 8.58C25.6581 8.856 25.5861 9.174 25.5861 9.534C25.5861 9.894 25.6581 10.212 25.8021 10.488C25.9461 10.758 26.1471 10.968 26.4051 11.118C26.6631 11.268 26.9511 11.343 27.2691 11.343C27.7791 11.343 28.1841 11.184 28.4841 10.866C28.7901 10.542 28.9431 10.098 28.9431 9.534C28.9431 8.97 28.7901 8.529 28.4841 8.211C28.1841 7.887 27.7791 7.725 27.2691 7.725ZM35.3856 9.255C35.3856 9.429 35.3736 9.579 35.3496 9.705H31.3986C31.4166 10.269 31.5756 10.692 31.8756 10.974C32.1816 11.256 32.5536 11.397 32.9916 11.397C33.3876 11.397 33.7176 11.298 33.9816 11.1C34.2516 10.896 34.4166 10.626 34.4766 10.29H35.3496C35.2896 10.632 35.1546 10.938 34.9446 11.208C34.7406 11.478 34.4736 11.688 34.1436 11.838C33.8136 11.988 33.4416 12.063 33.0276 12.063C32.5536 12.063 32.1336 11.961 31.7676 11.757C31.4016 11.553 31.1136 11.262 30.9036 10.884C30.6996 10.5 30.5976 10.05 30.5976 9.534C30.5976 9.018 30.6996 8.568 30.9036 8.184C31.1136 7.8 31.4016 7.506 31.7676 7.302C32.1336 7.098 32.5536 6.996 33.0276 6.996C33.5076 6.996 33.9246 7.098 34.2786 7.302C34.6386 7.506 34.9116 7.779 35.0976 8.121C35.2896 8.463 35.3856 8.841 35.3856 9.255ZM34.5576 9.309C34.5756 8.943 34.5156 8.637 34.3776 8.391C34.2396 8.145 34.0506 7.962 33.8106 7.842C33.5706 7.722 33.3096 7.662 33.0276 7.662C32.5776 7.662 32.1996 7.803 31.8936 8.085C31.5876 8.361 31.4226 8.769 31.3986 9.309H34.5576ZM39.0578 6.978C39.6338 6.978 40.0988 7.164 40.4528 7.536C40.8068 7.902 40.9838 8.433 40.9838 9.129V12H40.1648V9.201C40.1648 8.709 40.0388 8.331 39.7868 8.067C39.5348 7.803 39.1928 7.671 38.7608 7.671C38.3108 7.671 37.9508 7.818 37.6808 8.112C37.4108 8.4 37.2758 8.823 37.2758 9.381V12H36.4568V7.059H37.2758V8.229C37.4018 7.827 37.6238 7.518 37.9418 7.302C38.2658 7.086 38.6378 6.978 39.0578 6.978Z" fill="#1F1F1F"/>
</svg>
