<svg width="34" height="21" viewBox="0 0 34 21" fill="none" xmlns="http://www.w3.org/2000/svg">
<path d="M10.5 14.875C10.9832 14.875 11.375 14.4832 11.375 14C11.375 13.5168 10.9832 13.125 10.5 13.125C10.0168 13.125 9.625 13.5168 9.625 14C9.625 14.4832 10.0168 14.875 10.5 14.875Z" stroke="#0056D2" stroke-width="1.5" stroke-linecap="round" stroke-linejoin="round"/>
<path d="M16.625 8.75H4.375C3.4085 8.75 2.625 9.5335 2.625 10.5V17.5C2.625 18.4665 3.4085 19.25 4.375 19.25H16.625C17.5915 19.25 18.375 18.4665 18.375 17.5V10.5C18.375 9.5335 17.5915 8.75 16.625 8.75Z" stroke="#0056D2" stroke-width="1.5" stroke-linecap="round" stroke-linejoin="round"/>
<path d="M6.125 8.75V6.125C6.125 4.96468 6.58594 3.85188 7.40641 3.03141C8.22688 2.21094 9.33968 1.75 10.5 1.75C11.6603 1.75 12.7731 2.21094 13.5936 3.03141C14.4141 3.85188 14.875 4.96468 14.875 6.125V8.75" stroke="#0056D2" stroke-width="1.5" stroke-linecap="round" stroke-linejoin="round"/>
<path d="M33 1.5L33 19.5" stroke="#0056D2"/>
</svg>
