<svg width="18" height="18" viewBox="0 0 18 18" fill="none" xmlns="http://www.w3.org/2000/svg">
<path d="M1.5 12V3C1.5 2.60218 1.65804 2.22064 1.93934 1.93934C2.22064 1.65804 2.60218 1.5 3 1.5H11.25" stroke="#0056D2" stroke-linecap="round" stroke-linejoin="round"/>
<path d="M16.5 13.5H8.25C7.85218 13.5 7.47064 13.658 7.18934 13.9393C6.90804 14.2206 6.75 14.6022 6.75 15M6.75 15C6.75 15.3978 6.90804 15.7794 7.18934 16.0607C7.47064 16.342 7.85218 16.5 8.25 16.5H16.125C16.2245 16.5 16.3198 16.4605 16.3902 16.3902C16.4605 16.3198 16.5 16.2245 16.5 16.125V4.875C16.5 4.77554 16.4605 4.68016 16.3902 4.60984C16.3198 4.53951 16.2245 4.5 16.125 4.5H8.25C7.85218 4.5 7.47064 4.65804 7.18934 4.93934C6.90804 5.22064 6.75 5.60218 6.75 6V15Z" stroke="#0056D2" stroke-linecap="round" stroke-linejoin="round"/>
<path d="M3.75 10.5H3C2.60218 10.5 2.22064 10.658 1.93934 10.9393C1.65804 11.2206 1.5 11.6022 1.5 12C1.5 12.3978 1.65804 12.7794 1.93934 13.0607C2.22064 13.342 2.60218 13.5 3 13.5H3.75" stroke="#0056D2" stroke-linecap="round" stroke-linejoin="round"/>
</svg>
