<svg width="18" height="18" viewBox="0 0 18 18" fill="none" xmlns="http://www.w3.org/2000/svg">
<path d="M8.25 3.52603C8.24985 3.42157 8.21876 3.31949 8.16065 3.23267C8.10254 3.14586 8.02001 3.07821 7.92349 3.03825C7.82697 2.9983 7.72077 2.98783 7.61831 3.00817C7.51584 3.0285 7.42169 3.07874 7.34775 3.15253L4.80975 5.68978C4.7118 5.78832 4.59528 5.86643 4.46692 5.9196C4.33856 5.97277 4.20093 5.99994 4.062 5.99953H2.25C2.05109 5.99953 1.86032 6.07855 1.71967 6.2192C1.57902 6.35986 1.5 6.55062 1.5 6.74953V11.2495C1.5 11.4484 1.57902 11.6392 1.71967 11.7799C1.86032 11.9205 2.05109 11.9995 2.25 11.9995H4.062C4.20093 11.9991 4.33856 12.0263 4.46692 12.0795C4.59528 12.1326 4.7118 12.2107 4.80975 12.3093L7.347 14.8473C7.42095 14.9214 7.51523 14.9719 7.61789 14.9923C7.72056 15.0128 7.82699 15.0023 7.92369 14.9622C8.0204 14.9221 8.10303 14.8543 8.16112 14.7672C8.21921 14.6801 8.25015 14.5777 8.25 14.473V3.52603Z" stroke="#6D6D6D" stroke-linecap="round" stroke-linejoin="round"/>
<path d="M12 6.75C12.4868 7.39911 12.75 8.18861 12.75 9C12.75 9.81139 12.4868 10.6009 12 11.25" stroke="#6D6D6D" stroke-linecap="round" stroke-linejoin="round"/>
<path d="M14.5234 13.7726C15.1502 13.1458 15.6475 12.4016 15.9867 11.5827C16.3259 10.7637 16.5005 9.88599 16.5005 8.99956C16.5005 8.11313 16.3259 7.23538 15.9867 6.41643C15.6475 5.59748 15.1502 4.85336 14.5234 4.22656" stroke="#6D6D6D" stroke-linecap="round" stroke-linejoin="round"/>
</svg>
